{
 "asset": {
  "generator": "MILENDALL-1.0",
  "version": "2.0"
 },
 "scene": 0,
 "scenes": [
  {
   "nodes": [
    0
   ]
  }
 ],
 "nodes": [
  {
   "children": [
    1
   ]
  },
  {
   "name": "parent",
   "children": [
    2,
    3
   ],
   "mesh": 0,
   "extras": {
    "phys_faces": [
     {
      "data": {
       "type": "hard"
      },
      "accessor": 10
     },
     {
      "data": {
       "type": "hard"
      },
      "accessor": 11
     },
     {
      "data": {
       "type": "hard"
      },
      "accessor": 12
     },
     {
      "data": {
       "type": "hard"
      },
      "accessor": 13
     },
     {
      "data": {
       "type": "hard"
      },
      "accessor": 14
     },
     {
      "data": {
       "type": "hard"
      },
      "accessor": 15
     },
     {
      "data": {
       "type": "hard"
      },
      "accessor": 16
     },
     {
      "data": {
       "type": "hard"
      },
      "accessor": 17
     },
     {
      "data": {
       "type": "hard"
      },
      "accessor": 18
     },
     {
      "data": {
       "type": "hard"
      },
      "accessor": 19
     }
    ],
    "points": 9
   }
  },
  {
   "name": "r1r2",
   "children": [
    4
   ],
   "matrix": [
    1.0,
    0.0,
    0.0,
    0,
    0.0,
    1.0,
    0.0,
    0,
    0.0,
    0.0,
    1.0,
    0,
    4.0,
    0.0,
    0.0,
    1
   ]
  },
  {
   "name": "r2r1",
   "children": [
    5
   ],
   "matrix": [
    -1.0,
    0.0,
    0.0,
    0,
    0.0,
    1.0,
    0.0,
    0,
    0.0,
    0.0,
    -1.0,
    0,
    16.0,
    0.0,
    0.0,
    1
   ]
  },
  {
   "name": "r1r2_impl",
   "mesh": 1,
   "extras": {
    "phys_faces": [
     {
      "data": {
       "type": "hard"
      },
      "accessor": 24
     },
     {
      "data": {
       "type": "portal",
       "connect": [
        "room1",
        "room2"
       ],
       "gate": "r1r2"
      },
      "accessor": 25
     }
    ],
    "points": 23
   }
  },
  {
   "name": "r2r1_impl",
   "mesh": 2,
   "extras": {
    "phys_faces": [
     {
      "data": {
       "type": "hard"
      },
      "accessor": 30
     },
     {
      "data": {
       "type": "portal",
       "connect": [
        "room2",
        "room1"
       ],
       "gate": "r2r1"
      },
      "accessor": 31
     }
    ],
    "points": 29
   }
  }
 ],
 "meshes": [
  {
   "primitives": [
    {
     "attributes": {
      "POSITION": 0,
      "TEXCOORD_0": 1
     },
     "indices": 2,
     "mode": 4,
     "material": 0
    },
    {
     "attributes": {
      "POSITION": 3,
      "TEXCOORD_0": 4
     },
     "indices": 5,
     "mode": 4,
     "material": 1
    },
    {
     "attributes": {
      "POSITION": 6,
      "TEXCOORD_0": 7
     },
     "indices": 8,
     "mode": 4,
     "material": 2
    }
   ],
   "name": "Mesh_parent"
  },
  {
   "primitives": [
    {
     "attributes": {
      "POSITION": 20,
      "TEXCOORD_0": 21
     },
     "indices": 22,
     "mode": 4,
     "material": 0
    }
   ],
   "name": "Mesh_r1r2_impl"
  },
  {
   "primitives": [
    {
     "attributes": {
      "POSITION": 26,
      "TEXCOORD_0": 27
     },
     "indices": 28,
     "mode": 4,
     "material": 0
    }
   ],
   "name": "Mesh_r2r1_impl"
  }
 ],
 "buffers": [
  {
   "uri": "data.bin",
   "byteLength": 3130
  }
 ],
 "bufferViews": [
  {
   "buffer": 0,
   "byteOffset": 0,
   "byteLength": 48,
   "target": 34962
  },
  {
   "buffer": 0,
   "byteOffset": 48,
   "byteLength": 32,
   "target": 34962
  },
  {
   "buffer": 0,
   "byteOffset": 80,
   "byteLength": 12,
   "target": 34963
  },
  {
   "buffer": 0,
   "byteOffset": 96,
   "byteLength": 336,
   "target": 34962
  },
  {
   "buffer": 0,
   "byteOffset": 432,
   "byteLength": 224,
   "target": 34962
  },
  {
   "buffer": 0,
   "byteOffset": 656,
   "byteLength": 96,
   "target": 34963
  },
  {
   "buffer": 0,
   "byteOffset": 752,
   "byteLength": 48,
   "target": 34962
  },
  {
   "buffer": 0,
   "byteOffset": 800,
   "byteLength": 32,
   "target": 34962
  },
  {
   "buffer": 0,
   "byteOffset": 832,
   "byteLength": 12,
   "target": 34963
  },
  {
   "buffer": 0,
   "byteOffset": 848,
   "byteLength": 480,
   "target": 34962
  },
  {
   "buffer": 0,
   "byteOffset": 1328,
   "byteLength": 10,
   "target": 34963
  },
  {
   "buffer": 0,
   "byteOffset": 1340,
   "byteLength": 10,
   "target": 34963
  },
  {
   "buffer": 0,
   "byteOffset": 1352,
   "byteLength": 10,
   "target": 34963
  },
  {
   "buffer": 0,
   "byteOffset": 1364,
   "byteLength": 10,
   "target": 34963
  },
  {
   "buffer": 0,
   "byteOffset": 1376,
   "byteLength": 10,
   "target": 34963
  },
  {
   "buffer": 0,
   "byteOffset": 1388,
   "byteLength": 10,
   "target": 34963
  },
  {
   "buffer": 0,
   "byteOffset": 1400,
   "byteLength": 10,
   "target": 34963
  },
  {
   "buffer": 0,
   "byteOffset": 1412,
   "byteLength": 10,
   "target": 34963
  },
  {
   "buffer": 0,
   "byteOffset": 1424,
   "byteLength": 10,
   "target": 34963
  },
  {
   "buffer": 0,
   "byteOffset": 1436,
   "byteLength": 10,
   "target": 34963
  },
  {
   "buffer": 0,
   "byteOffset": 1452,
   "byteLength": 192,
   "target": 34962
  },
  {
   "buffer": 0,
   "byteOffset": 1648,
   "byteLength": 128,
   "target": 34962
  },
  {
   "buffer": 0,
   "byteOffset": 1776,
   "byteLength": 144,
   "target": 34963
  },
  {
   "buffer": 0,
   "byteOffset": 1920,
   "byteLength": 240,
   "target": 34962
  },
  {
   "buffer": 0,
   "byteOffset": 2160,
   "byteLength": 120,
   "target": 34963
  },
  {
   "buffer": 0,
   "byteOffset": 2280,
   "byteLength": 10,
   "target": 34963
  },
  {
   "buffer": 0,
   "byteOffset": 2292,
   "byteLength": 192,
   "target": 34962
  },
  {
   "buffer": 0,
   "byteOffset": 2488,
   "byteLength": 128,
   "target": 34962
  },
  {
   "buffer": 0,
   "byteOffset": 2616,
   "byteLength": 144,
   "target": 34963
  },
  {
   "buffer": 0,
   "byteOffset": 2760,
   "byteLength": 240,
   "target": 34962
  },
  {
   "buffer": 0,
   "byteOffset": 3000,
   "byteLength": 120,
   "target": 34963
  },
  {
   "buffer": 0,
   "byteOffset": 3120,
   "byteLength": 10,
   "target": 34963
  }
 ],
 "materials": [
  {
   "pbrMetallicRoughness": {
    "baseColorTexture": {
     "index": 0
    },
    "metallicFactor": 0.0
   }
  },
  {
   "pbrMetallicRoughness": {
    "baseColorTexture": {
     "index": 1
    },
    "metallicFactor": 0.0
   }
  },
  {
   "pbrMetallicRoughness": {
    "baseColorTexture": {
     "index": 2
    },
    "metallicFactor": 0.0
   }
  }
 ],
 "accessors": [
  {
   "bufferView": 0,
   "byteOffset": 0,
   "componentType": 5126,
   "count": 4,
   "type": "VEC3",
   "min": [
    0.0,
    0.0,
    0.0
   ],
   "max": [
    23.0,
    0.0,
    4.0
   ]
  },
  {
   "bufferView": 1,
   "byteOffset": 0,
   "componentType": 5126,
   "count": 4,
   "type": "VEC2",
   "min": [
    0.0,
    0.0
   ],
   "max": [
    23.0,
    4.0
   ]
  },
  {
   "bufferView": 2,
   "byteOffset": 0,
   "componentType": 5123,
   "count": 6,
   "type": "SCALAR",
   "min": [
    0
   ],
   "max": [
    3
   ]
  },
  {
   "bufferView": 3,
   "byteOffset": 0,
   "componentType": 5126,
   "count": 28,
   "type": "VEC3",
   "min": [
    0.0,
    0.0,
    0.0
   ],
   "max": [
    23.0,
    4.5,
    4.0
   ]
  },
  {
   "bufferView": 4,
   "byteOffset": 0,
   "componentType": 5126,
   "count": 28,
   "type": "VEC2",
   "min": [
    0.0,
    0.0
   ],
   "max": [
    27.0,
    4.5
   ]
  },
  {
   "bufferView": 5,
   "byteOffset": 0,
   "componentType": 5123,
   "count": 48,
   "type": "SCALAR",
   "min": [
    0
   ],
   "max": [
    27
   ]
  },
  {
   "bufferView": 6,
   "byteOffset": 0,
   "componentType": 5126,
   "count": 4,
   "type": "VEC3",
   "min": [
    0.0,
    4.5,
    0.0
   ],
   "max": [
    23.0,
    4.5,
    4.0
   ]
  },
  {
   "bufferView": 7,
   "byteOffset": 0,
   "componentType": 5126,
   "count": 4,
   "type": "VEC2",
   "min": [
    0.0,
    0.0
   ],
   "max": [
    23.0,
    4.0
   ]
  },
  {
   "bufferView": 8,
   "byteOffset": 0,
   "componentType": 5123,
   "count": 6,
   "type": "SCALAR",
   "min": [
    0
   ],
   "max": [
    3
   ]
  },
  {
   "bufferView": 9,
   "byteOffset": 0,
   "componentType": 5126,
   "count": 40,
   "type": "VEC3",
   "min": [
    0.0,
    0.0,
    0.0
   ],
   "max": [
    23.0,
    4.5,
    4.0
   ]
  },
  {
   "bufferView": 10,
   "byteOffset": 0,
   "componentType": 5123,
   "count": 5,
   "type": "SCALAR",
   "min": [
    0
   ],
   "max": [
    6
   ]
  },
  {
   "bufferView": 11,
   "byteOffset": 0,
   "componentType": 5123,
   "count": 5,
   "type": "SCALAR",
   "min": [
    1
   ],
   "max": [
    7
   ]
  },
  {
   "bufferView": 12,
   "byteOffset": 0,
   "componentType": 5123,
   "count": 5,
   "type": "SCALAR",
   "min": [
    4
   ],
   "max": [
    11
   ]
  },
  {
   "bufferView": 13,
   "byteOffset": 0,
   "componentType": 5123,
   "count": 5,
   "type": "SCALAR",
   "min": [
    4
   ],
   "max": [
    15
   ]
  },
  {
   "bufferView": 14,
   "byteOffset": 0,
   "componentType": 5123,
   "count": 5,
   "type": "SCALAR",
   "min": [
    4
   ],
   "max": [
    19
   ]
  },
  {
   "bufferView": 15,
   "byteOffset": 0,
   "componentType": 5123,
   "count": 5,
   "type": "SCALAR",
   "min": [
    4
   ],
   "max": [
    23
   ]
  },
  {
   "bufferView": 16,
   "byteOffset": 0,
   "componentType": 5123,
   "count": 5,
   "type": "SCALAR",
   "min": [
    4
   ],
   "max": [
    27
   ]
  },
  {
   "bufferView": 17,
   "byteOffset": 0,
   "componentType": 5123,
   "count": 5,
   "type": "SCALAR",
   "min": [
    4
   ],
   "max": [
    31
   ]
  },
  {
   "bufferView": 18,
   "byteOffset": 0,
   "componentType": 5123,
   "count": 5,
   "type": "SCALAR",
   "min": [
    4
   ],
   "max": [
    35
   ]
  },
  {
   "bufferView": 19,
   "byteOffset": 0,
   "componentType": 5123,
   "count": 5,
   "type": "SCALAR",
   "min": [
    4
   ],
   "max": [
    39
   ]
  },
  {
   "bufferView": 20,
   "byteOffset": 0,
   "componentType": 5126,
   "count": 16,
   "type": "VEC3",
   "min": [
    -0.5,
    0.0,
    -0.2
   ],
   "max": [
    3.0,
    2.7,
    1.2
   ]
  },
  {
   "bufferView": 21,
   "byteOffset": 0,
   "componentType": 5126,
   "count": 16,
   "type": "VEC2",
   "min": [
    -0.5,
    -0.2
   ],
   "max": [
    3.0,
    1.2
   ]
  },
  {
   "bufferView": 22,
   "byteOffset": 0,
   "componentType": 5123,
   "count": 72,
   "type": "SCALAR",
   "min": [
    0
   ],
   "max": [
    15
   ]
  },
  {
   "bufferView": 23,
   "byteOffset": 0,
   "componentType": 5126,
   "count": 20,
   "type": "VEC3",
   "min": [
    -0.5,
    0.0,
    -0.2
   ],
   "max": [
    3.0,
    2.7,
    1.2
   ]
  },
  {
   "bufferView": 24,
   "byteOffset": 0,
   "componentType": 5123,
   "count": 60,
   "type": "SCALAR",
   "min": [
    0
   ],
   "max": [
    15
   ]
  },
  {
   "bufferView": 25,
   "byteOffset": 0,
   "componentType": 5123,
   "count": 5,
   "type": "SCALAR",
   "min": [
    4
   ],
   "max": [
    19
   ]
  },
  {
   "bufferView": 26,
   "byteOffset": 0,
   "componentType": 5126,
   "count": 16,
   "type": "VEC3",
   "min": [
    -0.5,
    0.0,
    -0.2
   ],
   "max": [
    3.0,
    2.7,
    1.2
   ]
  },
  {
   "bufferView": 27,
   "byteOffset": 0,
   "componentType": 5126,
   "count": 16,
   "type": "VEC2",
   "min": [
    -0.5,
    -0.2
   ],
   "max": [
    3.0,
    1.2
   ]
  },
  {
   "bufferView": 28,
   "byteOffset": 0,
   "componentType": 5123,
   "count": 72,
   "type": "SCALAR",
   "min": [
    0
   ],
   "max": [
    15
   ]
  },
  {
   "bufferView": 29,
   "byteOffset": 0,
   "componentType": 5126,
   "count": 20,
   "type": "VEC3",
   "min": [
    -0.5,
    0.0,
    -0.2
   ],
   "max": [
    3.0,
    2.7,
    1.2
   ]
  },
  {
   "bufferView": 30,
   "byteOffset": 0,
   "componentType": 5123,
   "count": 60,
   "type": "SCALAR",
   "min": [
    0
   ],
   "max": [
    15
   ]
  },
  {
   "bufferView": 31,
   "byteOffset": 0,
   "componentType": 5123,
   "count": 5,
   "type": "SCALAR",
   "min": [
    4
   ],
   "max": [
    19
   ]
  }
 ],
 "images": [
  {
   "uri": "/common/basic/ground.jpg"
  },
  {
   "uri": "/common/basic/wall.jpg"
  },
  {
   "uri": "/common/basic/ceiling.jpg"
  }
 ],
 "textures": [
  {
   "sampler": 0,
   "source": 0
  },
  {
   "sampler": 0,
   "source": 1
  },
  {
   "sampler": 0,
   "source": 2
  }
 ],
 "samplers": [
  {
   "magFilter": 9729,
   "minFilter": 9986,
   "wrapS": 10497,
   "wrapT": 10497
  }
 ]
}