{
    "asset": {
        "generator": "MILENDALL-1.0",
        "version": "2.0"
    },
    "extras": {},
    "scene": 0,
    "scenes": [
        {
            "nodes": [
                0
            ]
        }
    ],
    "nodes": [
        {
            "children": [
                1,
                3
            ],
            "extras": {
                "objects": [
                    {
                        "type": "object_0"
                    },
                    {
                        "type": "object_1"
                    }
                ]
            }
        },
        {
            "name": "b0_root_option",
            "children": [
                2
            ],
            "matrix": [
                1.0,
                0.0,
                0.0,
                0,
                0.0,
                1.0,
                0.0,
                0,
                0.0,
                0.0,
                1.0,
                0,
                0.0,
                1.0,
                0.0,
                1
            ]
        },
        {
            "name": "objects_objects",
            "extras": {
                "objects": [
                    {
                        "type": "object_2"
                    },
                    {
                        "type": "object_3"
                    }
                ]
            }
        },
        {
            "name": "rect_parent",
            "mesh": 0,
            "extras": {
                "phys_faces": [
                    {
                        "data": {
                            "type": "hard"
                        },
                        "accessor": 10
                    },
                    {
                        "data": {
                            "type": "hard"
                        },
                        "accessor": 11
                    },
                    {
                        "data": {
                            "type": "hard"
                        },
                        "accessor": 12
                    },
                    {
                        "data": {
                            "type": "hard"
                        },
                        "accessor": 13
                    },
                    {
                        "data": {
                            "type": "hard"
                        },
                        "accessor": 14
                    },
                    {
                        "data": {
                            "type": "hard"
                        },
                        "accessor": 15
                    }
                ],
                "points": 9
            }
        }
    ],
    "meshes": [
        {
            "primitives": [
                {
                    "attributes": {
                        "POSITION": 0,
                        "TEXCOORD_0": 1
                    },
                    "indices": 2,
                    "mode": 4,
                    "material": 0
                },
                {
                    "attributes": {
                        "POSITION": 3,
                        "TEXCOORD_0": 4
                    },
                    "indices": 5,
                    "mode": 4,
                    "material": 1
                },
                {
                    "attributes": {
                        "POSITION": 6,
                        "TEXCOORD_0": 7
                    },
                    "indices": 8,
                    "mode": 4,
                    "material": 2
                }
            ],
            "name": "Mesh_rect_parent"
        }
    ],
    "buffers": [
        {
            "uri": "data.bin",
            "byteLength": 918
        }
    ],
    "bufferViews": [
        {
            "buffer": 0,
            "byteOffset": 0,
            "byteLength": 48
        },
        {
            "buffer": 0,
            "byteOffset": 48,
            "byteLength": 32
        },
        {
            "buffer": 0,
            "byteOffset": 80,
            "byteLength": 12
        },
        {
            "buffer": 0,
            "byteOffset": 96,
            "byteLength": 192
        },
        {
            "buffer": 0,
            "byteOffset": 288,
            "byteLength": 128
        },
        {
            "buffer": 0,
            "byteOffset": 416,
            "byteLength": 48
        },
        {
            "buffer": 0,
            "byteOffset": 464,
            "byteLength": 48
        },
        {
            "buffer": 0,
            "byteOffset": 512,
            "byteLength": 32
        },
        {
            "buffer": 0,
            "byteOffset": 544,
            "byteLength": 12
        },
        {
            "buffer": 0,
            "byteOffset": 560,
            "byteLength": 288
        },
        {
            "buffer": 0,
            "byteOffset": 848,
            "byteLength": 10
        },
        {
            "buffer": 0,
            "byteOffset": 860,
            "byteLength": 10
        },
        {
            "buffer": 0,
            "byteOffset": 872,
            "byteLength": 10
        },
        {
            "buffer": 0,
            "byteOffset": 884,
            "byteLength": 10
        },
        {
            "buffer": 0,
            "byteOffset": 896,
            "byteLength": 10
        },
        {
            "buffer": 0,
            "byteOffset": 908,
            "byteLength": 10
        }
    ],
    "materials": [
        {
            "pbrMetallicRoughness": {
                "baseColorFactor": [
                    1,
                    1,
                    1,
                    1
                ],
                "metallicFactor": 0.0
            }
        },
        {
            "pbrMetallicRoughness": {
                "baseColorFactor": [
                    1,
                    1,
                    1,
                    1
                ],
                "metallicFactor": 0.0
            }
        },
        {
            "pbrMetallicRoughness": {
                "baseColorFactor": [
                    1,
                    1,
                    1,
                    1
                ],
                "metallicFactor": 0.0
            }
        }
    ],
    "accessors": [
        {
            "bufferView": 0,
            "byteOffset": 0,
            "componentType": 5126,
            "count": 4,
            "type": "VEC3",
            "min": [
                0.0,
                0.0,
                0.0
            ],
            "max": [
                5.0,
                3.061616997868383e-16,
                5.0
            ]
        },
        {
            "bufferView": 1,
            "byteOffset": 0,
            "componentType": 5126,
            "count": 4,
            "type": "VEC2",
            "min": [
                0.0,
                -5.0
            ],
            "max": [
                5.0,
                1.8746997283273223e-32
            ]
        },
        {
            "bufferView": 2,
            "byteOffset": 0,
            "componentType": 5123,
            "count": 6,
            "type": "SCALAR",
            "min": [
                0
            ],
            "max": [
                3
            ]
        },
        {
            "bufferView": 3,
            "byteOffset": 0,
            "componentType": 5126,
            "count": 16,
            "type": "VEC3",
            "min": [
                0.0,
                0.0,
                0.0
            ],
            "max": [
                5.0,
                2.5,
                5.0
            ]
        },
        {
            "bufferView": 4,
            "byteOffset": 0,
            "componentType": 5126,
            "count": 16,
            "type": "VEC2",
            "min": [
                -5.0,
                0.0
            ],
            "max": [
                5.0,
                2.5
            ]
        },
        {
            "bufferView": 5,
            "byteOffset": 0,
            "componentType": 5123,
            "count": 24,
            "type": "SCALAR",
            "min": [
                0
            ],
            "max": [
                15
            ]
        },
        {
            "bufferView": 6,
            "byteOffset": 0,
            "componentType": 5126,
            "count": 4,
            "type": "VEC3",
            "min": [
                0.0,
                2.5,
                0.0
            ],
            "max": [
                5.0,
                2.5000000000000004,
                5.0
            ]
        },
        {
            "bufferView": 7,
            "byteOffset": 0,
            "componentType": 5126,
            "count": 4,
            "type": "VEC2",
            "min": [
                0.0,
                2.220446049250313e-16
            ],
            "max": [
                5.0,
                5.0
            ]
        },
        {
            "bufferView": 8,
            "byteOffset": 0,
            "componentType": 5123,
            "count": 6,
            "type": "SCALAR",
            "min": [
                0
            ],
            "max": [
                3
            ]
        },
        {
            "bufferView": 9,
            "byteOffset": 0,
            "componentType": 5126,
            "count": 24,
            "type": "VEC3",
            "min": [
                0.0,
                0.0,
                0.0
            ],
            "max": [
                5.0,
                2.5000000000000004,
                5.0
            ]
        },
        {
            "bufferView": 10,
            "byteOffset": 0,
            "componentType": 5123,
            "count": 5,
            "type": "SCALAR",
            "min": [
                0
            ],
            "max": [
                4
            ]
        },
        {
            "bufferView": 11,
            "byteOffset": 0,
            "componentType": 5123,
            "count": 5,
            "type": "SCALAR",
            "min": [
                4
            ],
            "max": [
                7
            ]
        },
        {
            "bufferView": 12,
            "byteOffset": 0,
            "componentType": 5123,
            "count": 5,
            "type": "SCALAR",
            "min": [
                4
            ],
            "max": [
                11
            ]
        },
        {
            "bufferView": 13,
            "byteOffset": 0,
            "componentType": 5123,
            "count": 5,
            "type": "SCALAR",
            "min": [
                4
            ],
            "max": [
                15
            ]
        },
        {
            "bufferView": 14,
            "byteOffset": 0,
            "componentType": 5123,
            "count": 5,
            "type": "SCALAR",
            "min": [
                4
            ],
            "max": [
                19
            ]
        },
        {
            "bufferView": 15,
            "byteOffset": 0,
            "componentType": 5123,
            "count": 5,
            "type": "SCALAR",
            "min": [
                4
            ],
            "max": [
                23
            ]
        }
    ]
}