{
 "asset": {
  "generator": "MILENDALL-1.0",
  "version": "2.0"
 },
 "scene": 0,
 "scenes": [
  {
   "nodes": [
    0
   ]
  }
 ],
 "nodes": [
  {
   "children": [
    1
   ]
  },
  {
   "name": "parent",
   "mesh": 0
  }
 ],
 "meshes": [
  {
   "primitives": [
    {
     "attributes": {
      "POSITION": 0,
      "TEXCOORD_0": 2
     },
     "indices": 1,
     "mode": 4,
     "material": 0
    },
    {
     "attributes": {
      "POSITION": 3,
      "TEXCOORD_0": 5
     },
     "indices": 4,
     "mode": 4,
     "material": 1
    },
    {
     "attributes": {
      "POSITION": 6,
      "TEXCOORD_0": 8
     },
     "indices": 7,
     "mode": 4,
     "material": 1
    },
    {
     "attributes": {
      "POSITION": 9,
      "TEXCOORD_0": 11
     },
     "indices": 10,
     "mode": 4,
     "material": 1
    },
    {
     "attributes": {
      "POSITION": 12,
      "TEXCOORD_0": 14
     },
     "indices": 13,
     "mode": 4,
     "material": 1
    },
    {
     "attributes": {
      "POSITION": 15,
      "TEXCOORD_0": 17
     },
     "indices": 16,
     "mode": 4,
     "material": 2
    }
   ],
   "name": "Mesh_parent"
  }
 ],
 "buffers": [
  {
   "uri": "data.bin",
   "byteLength": 2976
  }
 ],
 "bufferViews": [
  {
   "buffer": 0,
   "byteOffset": 0,
   "byteLength": 288,
   "target": 34962
  },
  {
   "buffer": 0,
   "byteOffset": 288,
   "byteLength": 12,
   "target": 34963
  },
  {
   "buffer": 0,
   "byteOffset": 304,
   "byteLength": 192,
   "target": 34962
  },
  {
   "buffer": 0,
   "byteOffset": 496,
   "byteLength": 288,
   "target": 34962
  },
  {
   "buffer": 0,
   "byteOffset": 784,
   "byteLength": 12,
   "target": 34963
  },
  {
   "buffer": 0,
   "byteOffset": 800,
   "byteLength": 192,
   "target": 34962
  },
  {
   "buffer": 0,
   "byteOffset": 992,
   "byteLength": 288,
   "target": 34962
  },
  {
   "buffer": 0,
   "byteOffset": 1280,
   "byteLength": 12,
   "target": 34963
  },
  {
   "buffer": 0,
   "byteOffset": 1296,
   "byteLength": 192,
   "target": 34962
  },
  {
   "buffer": 0,
   "byteOffset": 1488,
   "byteLength": 288,
   "target": 34962
  },
  {
   "buffer": 0,
   "byteOffset": 1776,
   "byteLength": 12,
   "target": 34963
  },
  {
   "buffer": 0,
   "byteOffset": 1792,
   "byteLength": 192,
   "target": 34962
  },
  {
   "buffer": 0,
   "byteOffset": 1984,
   "byteLength": 288,
   "target": 34962
  },
  {
   "buffer": 0,
   "byteOffset": 2272,
   "byteLength": 12,
   "target": 34963
  },
  {
   "buffer": 0,
   "byteOffset": 2288,
   "byteLength": 192,
   "target": 34962
  },
  {
   "buffer": 0,
   "byteOffset": 2480,
   "byteLength": 288,
   "target": 34962
  },
  {
   "buffer": 0,
   "byteOffset": 2768,
   "byteLength": 12,
   "target": 34963
  },
  {
   "buffer": 0,
   "byteOffset": 2784,
   "byteLength": 192,
   "target": 34962
  }
 ],
 "materials": [
  {
   "pbrMetallicRoughness": {
    "baseColorTexture": {
     "index": 0
    },
    "metallicFactor": 0.0
   }
  },
  {
   "pbrMetallicRoughness": {
    "baseColorTexture": {
     "index": 1
    },
    "metallicFactor": 0.0
   }
  },
  {
   "pbrMetallicRoughness": {
    "baseColorTexture": {
     "index": 2
    },
    "metallicFactor": 0.0
   }
  }
 ],
 "accessors": [
  {
   "bufferView": 0,
   "byteOffset": 0,
   "componentType": 5126,
   "count": 24,
   "type": "VEC3",
   "min": [
    0.0,
    0.0,
    0.0
   ],
   "max": [
    4.0,
    4.0,
    4.0
   ]
  },
  {
   "bufferView": 1,
   "byteOffset": 0,
   "componentType": 5123,
   "count": 6,
   "type": "SCALAR",
   "min": [
    0
   ],
   "max": [
    6
   ]
  },
  {
   "bufferView": 2,
   "byteOffset": 0,
   "componentType": 5126,
   "count": 24,
   "type": "VEC2",
   "min": [
    0.0,
    0.0
   ],
   "max": [
    4.0,
    4.0
   ]
  },
  {
   "bufferView": 3,
   "byteOffset": 0,
   "componentType": 5126,
   "count": 24,
   "type": "VEC3",
   "min": [
    0.0,
    0.0,
    0.0
   ],
   "max": [
    4.0,
    4.0,
    4.0
   ]
  },
  {
   "bufferView": 4,
   "byteOffset": 0,
   "componentType": 5123,
   "count": 6,
   "type": "SCALAR",
   "min": [
    8
   ],
   "max": [
    11
   ]
  },
  {
   "bufferView": 5,
   "byteOffset": 0,
   "componentType": 5126,
   "count": 24,
   "type": "VEC2",
   "min": [
    0.0,
    0.0
   ],
   "max": [
    8.0,
    4.0
   ]
  },
  {
   "bufferView": 6,
   "byteOffset": 0,
   "componentType": 5126,
   "count": 24,
   "type": "VEC3",
   "min": [
    0.0,
    0.0,
    0.0
   ],
   "max": [
    4.0,
    4.0,
    4.0
   ]
  },
  {
   "bufferView": 7,
   "byteOffset": 0,
   "componentType": 5123,
   "count": 6,
   "type": "SCALAR",
   "min": [
    12
   ],
   "max": [
    15
   ]
  },
  {
   "bufferView": 8,
   "byteOffset": 0,
   "componentType": 5126,
   "count": 24,
   "type": "VEC2",
   "min": [
    0.0,
    0.0
   ],
   "max": [
    8.0,
    4.0
   ]
  },
  {
   "bufferView": 9,
   "byteOffset": 0,
   "componentType": 5126,
   "count": 24,
   "type": "VEC3",
   "min": [
    0.0,
    0.0,
    0.0
   ],
   "max": [
    4.0,
    4.0,
    4.0
   ]
  },
  {
   "bufferView": 10,
   "byteOffset": 0,
   "componentType": 5123,
   "count": 6,
   "type": "SCALAR",
   "min": [
    16
   ],
   "max": [
    19
   ]
  },
  {
   "bufferView": 11,
   "byteOffset": 0,
   "componentType": 5126,
   "count": 24,
   "type": "VEC2",
   "min": [
    0.0,
    0.0
   ],
   "max": [
    8.0,
    4.0
   ]
  },
  {
   "bufferView": 12,
   "byteOffset": 0,
   "componentType": 5126,
   "count": 24,
   "type": "VEC3",
   "min": [
    0.0,
    0.0,
    0.0
   ],
   "max": [
    4.0,
    4.0,
    4.0
   ]
  },
  {
   "bufferView": 13,
   "byteOffset": 0,
   "componentType": 5123,
   "count": 6,
   "type": "SCALAR",
   "min": [
    20
   ],
   "max": [
    23
   ]
  },
  {
   "bufferView": 14,
   "byteOffset": 0,
   "componentType": 5126,
   "count": 24,
   "type": "VEC2",
   "min": [
    0.0,
    0.0
   ],
   "max": [
    8.0,
    4.0
   ]
  },
  {
   "bufferView": 15,
   "byteOffset": 0,
   "componentType": 5126,
   "count": 24,
   "type": "VEC3",
   "min": [
    0.0,
    0.0,
    0.0
   ],
   "max": [
    4.0,
    4.0,
    4.0
   ]
  },
  {
   "bufferView": 16,
   "byteOffset": 0,
   "componentType": 5123,
   "count": 6,
   "type": "SCALAR",
   "min": [
    1
   ],
   "max": [
    7
   ]
  },
  {
   "bufferView": 17,
   "byteOffset": 0,
   "componentType": 5126,
   "count": 24,
   "type": "VEC2",
   "min": [
    0.0,
    0.0
   ],
   "max": [
    4.0,
    4.0
   ]
  }
 ],
 "images": [
  {
   "uri": "/fake_texture/white.jpg"
  },
  {
   "uri": "/fake_texture/black.jpg"
  },
  {
   "uri": "/fake_texture/white.jpg"
  }
 ],
 "textures": [
  {
   "sampler": 0,
   "source": 0
  },
  {
   "sampler": 0,
   "source": 1
  },
  {
   "sampler": 0,
   "source": 2
  }
 ],
 "samplers": [
  {
   "magFilter": 9729,
   "minFilter": 9986,
   "wrapS": 10497,
   "wrapT": 10497
  }
 ]
}