{
 "asset": {
  "generator": "MILENDALL-1.0",
  "version": "2.0"
 },
 "scene": 0,
 "scenes": [
  {
   "nodes": [
    0
   ]
  }
 ],
 "nodes": [
  {
   "children": [
    1
   ]
  },
  {
   "name": "parent",
   "children": [
    2
   ],
   "mesh": 0,
   "extras": {
    "phys_faces": [
     {
      "data": {
       "type": "hard"
      },
      "accessor": 10
     },
     {
      "data": {
       "type": "hard"
      },
      "accessor": 11
     },
     {
      "data": {
       "type": "hard"
      },
      "accessor": 12
     },
     {
      "data": {
       "type": "hard"
      },
      "accessor": 13
     },
     {
      "data": {
       "type": "hard"
      },
      "accessor": 14
     },
     {
      "data": {
       "type": "hard"
      },
      "accessor": 15
     },
     {
      "data": {
       "type": "hard"
      },
      "accessor": 16
     },
     {
      "data": {
       "type": "hard"
      },
      "accessor": 17
     }
    ],
    "points": 9
   }
  },
  {
   "name": "r1r2",
   "children": [
    3
   ],
   "matrix": [
    0.0,
    0.0,
    -1.0,
    0,
    0.0,
    1.0,
    0.0,
    0,
    1.0,
    0.0,
    0.0,
    0,
    0.0,
    0.0,
    9.5,
    1
   ]
  },
  {
   "name": "r1r2_impl",
   "mesh": 1,
   "extras": {
    "phys_faces": [
     {
      "data": {
       "type": "hard"
      },
      "accessor": 22
     },
     {
      "data": {
       "type": "portal",
       "connect": [
        "room1",
        "room2"
       ]
      },
      "accessor": 23
     }
    ],
    "points": 21
   }
  }
 ],
 "meshes": [
  {
   "primitives": [
    {
     "attributes": {
      "POSITION": 0,
      "TEXCOORD_0": 1
     },
     "indices": 2,
     "mode": 4,
     "material": 0
    },
    {
     "attributes": {
      "POSITION": 3,
      "TEXCOORD_0": 4
     },
     "indices": 5,
     "mode": 4,
     "material": 1
    },
    {
     "attributes": {
      "POSITION": 6,
      "TEXCOORD_0": 7
     },
     "indices": 8,
     "mode": 4,
     "material": 2
    }
   ],
   "name": "Mesh_parent"
  },
  {
   "primitives": [
    {
     "attributes": {
      "POSITION": 18,
      "TEXCOORD_0": 19
     },
     "indices": 20,
     "mode": 4,
     "material": 0
    }
   ],
   "name": "Mesh_r1r2_impl"
  }
 ],
 "buffers": [
  {
   "uri": "data.bin",
   "byteLength": 2026
  }
 ],
 "bufferViews": [
  {
   "buffer": 0,
   "byteOffset": 0,
   "byteLength": 48,
   "target": 34962
  },
  {
   "buffer": 0,
   "byteOffset": 48,
   "byteLength": 32,
   "target": 34962
  },
  {
   "buffer": 0,
   "byteOffset": 80,
   "byteLength": 12,
   "target": 34963
  },
  {
   "buffer": 0,
   "byteOffset": 96,
   "byteLength": 264,
   "target": 34962
  },
  {
   "buffer": 0,
   "byteOffset": 360,
   "byteLength": 176,
   "target": 34962
  },
  {
   "buffer": 0,
   "byteOffset": 536,
   "byteLength": 72,
   "target": 34963
  },
  {
   "buffer": 0,
   "byteOffset": 608,
   "byteLength": 48,
   "target": 34962
  },
  {
   "buffer": 0,
   "byteOffset": 656,
   "byteLength": 32,
   "target": 34962
  },
  {
   "buffer": 0,
   "byteOffset": 688,
   "byteLength": 12,
   "target": 34963
  },
  {
   "buffer": 0,
   "byteOffset": 704,
   "byteLength": 384,
   "target": 34962
  },
  {
   "buffer": 0,
   "byteOffset": 1088,
   "byteLength": 10,
   "target": 34963
  },
  {
   "buffer": 0,
   "byteOffset": 1100,
   "byteLength": 10,
   "target": 34963
  },
  {
   "buffer": 0,
   "byteOffset": 1112,
   "byteLength": 10,
   "target": 34963
  },
  {
   "buffer": 0,
   "byteOffset": 1124,
   "byteLength": 10,
   "target": 34963
  },
  {
   "buffer": 0,
   "byteOffset": 1136,
   "byteLength": 10,
   "target": 34963
  },
  {
   "buffer": 0,
   "byteOffset": 1148,
   "byteLength": 10,
   "target": 34963
  },
  {
   "buffer": 0,
   "byteOffset": 1160,
   "byteLength": 10,
   "target": 34963
  },
  {
   "buffer": 0,
   "byteOffset": 1172,
   "byteLength": 10,
   "target": 34963
  },
  {
   "buffer": 0,
   "byteOffset": 1188,
   "byteLength": 192,
   "target": 34962
  },
  {
   "buffer": 0,
   "byteOffset": 1384,
   "byteLength": 128,
   "target": 34962
  },
  {
   "buffer": 0,
   "byteOffset": 1512,
   "byteLength": 144,
   "target": 34963
  },
  {
   "buffer": 0,
   "byteOffset": 1656,
   "byteLength": 240,
   "target": 34962
  },
  {
   "buffer": 0,
   "byteOffset": 1896,
   "byteLength": 120,
   "target": 34963
  },
  {
   "buffer": 0,
   "byteOffset": 2016,
   "byteLength": 10,
   "target": 34963
  }
 ],
 "materials": [
  {
   "pbrMetallicRoughness": {
    "baseColorTexture": {
     "index": 0
    },
    "metallicFactor": 0.0
   }
  },
  {
   "pbrMetallicRoughness": {
    "baseColorTexture": {
     "index": 1
    },
    "metallicFactor": 0.0
   }
  },
  {
   "pbrMetallicRoughness": {
    "baseColorTexture": {
     "index": 2
    },
    "metallicFactor": 0.0
   }
  }
 ],
 "accessors": [
  {
   "bufferView": 0,
   "byteOffset": 0,
   "componentType": 5126,
   "count": 4,
   "type": "VEC3",
   "min": [
    0.0,
    0.0,
    0.0
   ],
   "max": [
    4.0,
    0.0,
    13.5
   ]
  },
  {
   "bufferView": 1,
   "byteOffset": 0,
   "componentType": 5126,
   "count": 4,
   "type": "VEC2",
   "min": [
    0.0,
    0.0
   ],
   "max": [
    4.0,
    13.5
   ]
  },
  {
   "bufferView": 2,
   "byteOffset": 0,
   "componentType": 5123,
   "count": 6,
   "type": "SCALAR",
   "min": [
    0
   ],
   "max": [
    3
   ]
  },
  {
   "bufferView": 3,
   "byteOffset": 0,
   "componentType": 5126,
   "count": 22,
   "type": "VEC3",
   "min": [
    0.0,
    0.0,
    0.0
   ],
   "max": [
    4.0,
    4.5,
    13.5
   ]
  },
  {
   "bufferView": 4,
   "byteOffset": 0,
   "componentType": 5126,
   "count": 22,
   "type": "VEC2",
   "min": [
    0.0,
    0.0
   ],
   "max": [
    17.5,
    4.5
   ]
  },
  {
   "bufferView": 5,
   "byteOffset": 0,
   "componentType": 5123,
   "count": 36,
   "type": "SCALAR",
   "min": [
    0
   ],
   "max": [
    21
   ]
  },
  {
   "bufferView": 6,
   "byteOffset": 0,
   "componentType": 5126,
   "count": 4,
   "type": "VEC3",
   "min": [
    0.0,
    4.5,
    0.0
   ],
   "max": [
    4.0,
    4.5,
    13.5
   ]
  },
  {
   "bufferView": 7,
   "byteOffset": 0,
   "componentType": 5126,
   "count": 4,
   "type": "VEC2",
   "min": [
    0.0,
    0.0
   ],
   "max": [
    4.0,
    13.5
   ]
  },
  {
   "bufferView": 8,
   "byteOffset": 0,
   "componentType": 5123,
   "count": 6,
   "type": "SCALAR",
   "min": [
    0
   ],
   "max": [
    3
   ]
  },
  {
   "bufferView": 9,
   "byteOffset": 0,
   "componentType": 5126,
   "count": 32,
   "type": "VEC3",
   "min": [
    0.0,
    0.0,
    0.0
   ],
   "max": [
    4.0,
    4.5,
    13.5
   ]
  },
  {
   "bufferView": 10,
   "byteOffset": 0,
   "componentType": 5123,
   "count": 5,
   "type": "SCALAR",
   "min": [
    0
   ],
   "max": [
    6
   ]
  },
  {
   "bufferView": 11,
   "byteOffset": 0,
   "componentType": 5123,
   "count": 5,
   "type": "SCALAR",
   "min": [
    1
   ],
   "max": [
    7
   ]
  },
  {
   "bufferView": 12,
   "byteOffset": 0,
   "componentType": 5123,
   "count": 5,
   "type": "SCALAR",
   "min": [
    4
   ],
   "max": [
    11
   ]
  },
  {
   "bufferView": 13,
   "byteOffset": 0,
   "componentType": 5123,
   "count": 5,
   "type": "SCALAR",
   "min": [
    4
   ],
   "max": [
    15
   ]
  },
  {
   "bufferView": 14,
   "byteOffset": 0,
   "componentType": 5123,
   "count": 5,
   "type": "SCALAR",
   "min": [
    4
   ],
   "max": [
    19
   ]
  },
  {
   "bufferView": 15,
   "byteOffset": 0,
   "componentType": 5123,
   "count": 5,
   "type": "SCALAR",
   "min": [
    4
   ],
   "max": [
    23
   ]
  },
  {
   "bufferView": 16,
   "byteOffset": 0,
   "componentType": 5123,
   "count": 5,
   "type": "SCALAR",
   "min": [
    4
   ],
   "max": [
    27
   ]
  },
  {
   "bufferView": 17,
   "byteOffset": 0,
   "componentType": 5123,
   "count": 5,
   "type": "SCALAR",
   "min": [
    4
   ],
   "max": [
    31
   ]
  },
  {
   "bufferView": 18,
   "byteOffset": 0,
   "componentType": 5126,
   "count": 16,
   "type": "VEC3",
   "min": [
    -0.5,
    0.0,
    -0.2
   ],
   "max": [
    3.0,
    2.7,
    0.2
   ]
  },
  {
   "bufferView": 19,
   "byteOffset": 0,
   "componentType": 5126,
   "count": 16,
   "type": "VEC2",
   "min": [
    -0.5,
    -0.2
   ],
   "max": [
    3.0,
    0.2
   ]
  },
  {
   "bufferView": 20,
   "byteOffset": 0,
   "componentType": 5123,
   "count": 72,
   "type": "SCALAR",
   "min": [
    0
   ],
   "max": [
    15
   ]
  },
  {
   "bufferView": 21,
   "byteOffset": 0,
   "componentType": 5126,
   "count": 20,
   "type": "VEC3",
   "min": [
    -0.5,
    0.0,
    -0.2
   ],
   "max": [
    3.0,
    2.7,
    0.2
   ]
  },
  {
   "bufferView": 22,
   "byteOffset": 0,
   "componentType": 5123,
   "count": 60,
   "type": "SCALAR",
   "min": [
    0
   ],
   "max": [
    15
   ]
  },
  {
   "bufferView": 23,
   "byteOffset": 0,
   "componentType": 5123,
   "count": 5,
   "type": "SCALAR",
   "min": [
    4
   ],
   "max": [
    19
   ]
  }
 ],
 "images": [
  {
   "uri": "ground.jpg"
  },
  {
   "uri": "wall.jpg"
  },
  {
   "uri": "ceiling.jpg"
  }
 ],
 "textures": [
  {
   "sampler": 0,
   "source": 0
  },
  {
   "sampler": 0,
   "source": 1
  },
  {
   "sampler": 0,
   "source": 2
  }
 ],
 "samplers": [
  {
   "magFilter": 9729,
   "minFilter": 9986,
   "wrapS": 10497,
   "wrapT": 10497
  }
 ]
}