{
 "asset": {
  "generator": "MILENDALL-1.0",
  "version": "2.0"
 },
 "extras": {},
 "scene": 0,
 "scenes": [
  {
   "nodes": [
    0
   ]
  }
 ],
 "nodes": [
  {
   "children": [
    1,
    2
   ]
  },
  {
   "name": "b1_parent",
   "mesh": 0,
   "extras": {
    "phys_faces": [
     {
      "data": {
       "type": "hard"
      },
      "accessor": 10
     },
     {
      "data": {
       "type": "hard"
      },
      "accessor": 11
     },
     {
      "data": {
       "type": "hard"
      },
      "accessor": 12
     }
    ],
    "points": 9
   }
  },
  {
   "name": "door0_door0",
   "mesh": 1,
   "extras": {
    "phys_faces": [
     {
      "data": {
       "type": "hard"
      },
      "accessor": 17
     },
     {
      "data": {
       "type": "portal",
       "connect": "A",
       "gate": "my_door"
      },
      "accessor": 18
     }
    ],
    "points": 16
   }
  }
 ],
 "meshes": [
  {
   "primitives": [
    {
     "attributes": {
      "POSITION": 0,
      "TEXCOORD_0": 1
     },
     "indices": 2,
     "mode": 4,
     "material": 0
    },
    {
     "attributes": {
      "POSITION": 3,
      "TEXCOORD_0": 4
     },
     "indices": 5,
     "mode": 4,
     "material": 1
    },
    {
     "attributes": {
      "POSITION": 6,
      "TEXCOORD_0": 7
     },
     "indices": 8,
     "mode": 4,
     "material": 2
    }
   ],
   "name": "Mesh_b1_parent"
  },
  {
   "primitives": [
    {
     "attributes": {
      "POSITION": 13,
      "TEXCOORD_0": 14
     },
     "indices": 15,
     "mode": 4,
     "material": 1
    }
   ],
   "name": "Mesh_door0_door0"
  }
 ],
 "buffers": [
  {
   "uri": "data.bin",
   "byteLength": 2194
  }
 ],
 "bufferViews": [
  {
   "buffer": 0,
   "byteOffset": 0,
   "byteLength": 48
  },
  {
   "buffer": 0,
   "byteOffset": 48,
   "byteLength": 32
  },
  {
   "buffer": 0,
   "byteOffset": 80,
   "byteLength": 12
  },
  {
   "buffer": 0,
   "byteOffset": 96,
   "byteLength": 192
  },
  {
   "buffer": 0,
   "byteOffset": 288,
   "byteLength": 128
  },
  {
   "buffer": 0,
   "byteOffset": 416,
   "byteLength": 48
  },
  {
   "buffer": 0,
   "byteOffset": 464,
   "byteLength": 48
  },
  {
   "buffer": 0,
   "byteOffset": 512,
   "byteLength": 32
  },
  {
   "buffer": 0,
   "byteOffset": 544,
   "byteLength": 12
  },
  {
   "buffer": 0,
   "byteOffset": 560,
   "byteLength": 96
  },
  {
   "buffer": 0,
   "byteOffset": 656,
   "byteLength": 10
  },
  {
   "buffer": 0,
   "byteOffset": 668,
   "byteLength": 10
  },
  {
   "buffer": 0,
   "byteOffset": 680,
   "byteLength": 40
  },
  {
   "buffer": 0,
   "byteOffset": 720,
   "byteLength": 576
  },
  {
   "buffer": 0,
   "byteOffset": 1296,
   "byteLength": 384
  },
  {
   "buffer": 0,
   "byteOffset": 1680,
   "byteLength": 144
  },
  {
   "buffer": 0,
   "byteOffset": 1824,
   "byteLength": 240
  },
  {
   "buffer": 0,
   "byteOffset": 2064,
   "byteLength": 120
  },
  {
   "buffer": 0,
   "byteOffset": 2184,
   "byteLength": 10
  }
 ],
 "materials": [
  {
   "pbrMetallicRoughness": {
    "baseColorTexture": {
     "index": 0
    },
    "metallicFactor": 0.0
   }
  },
  {
   "pbrMetallicRoughness": {
    "baseColorTexture": {
     "index": 1
    },
    "metallicFactor": 0.0
   }
  },
  {
   "pbrMetallicRoughness": {
    "baseColorTexture": {
     "index": 2
    },
    "metallicFactor": 0.0
   }
  }
 ],
 "accessors": [
  {
   "bufferView": 0,
   "byteOffset": 0,
   "componentType": 5126,
   "count": 4,
   "type": "VEC3",
   "min": [
    0.0,
    0.0,
    0.0
   ],
   "max": [
    5.0,
    0.0,
    5.0
   ]
  },
  {
   "bufferView": 1,
   "byteOffset": 0,
   "componentType": 5126,
   "count": 4,
   "type": "VEC2",
   "min": [
    0.0,
    -5.0
   ],
   "max": [
    5.0,
    0.0
   ]
  },
  {
   "bufferView": 2,
   "byteOffset": 0,
   "componentType": 5123,
   "count": 6,
   "type": "SCALAR",
   "min": [
    0
   ],
   "max": [
    3
   ]
  },
  {
   "bufferView": 3,
   "byteOffset": 0,
   "componentType": 5126,
   "count": 16,
   "type": "VEC3",
   "min": [
    0.0,
    0.0,
    0.0
   ],
   "max": [
    5.0,
    2.5,
    5.0
   ]
  },
  {
   "bufferView": 4,
   "byteOffset": 0,
   "componentType": 5126,
   "count": 16,
   "type": "VEC2",
   "min": [
    0.0,
    -5.0
   ],
   "max": [
    2.5,
    5.0
   ]
  },
  {
   "bufferView": 5,
   "byteOffset": 0,
   "componentType": 5123,
   "count": 24,
   "type": "SCALAR",
   "min": [
    0
   ],
   "max": [
    15
   ]
  },
  {
   "bufferView": 6,
   "byteOffset": 0,
   "componentType": 5126,
   "count": 4,
   "type": "VEC3",
   "min": [
    0.0,
    2.5,
    0.0
   ],
   "max": [
    5.0,
    2.5,
    5.0
   ]
  },
  {
   "bufferView": 7,
   "byteOffset": 0,
   "componentType": 5126,
   "count": 4,
   "type": "VEC2",
   "min": [
    0.0,
    0.0
   ],
   "max": [
    5.0,
    5.0
   ]
  },
  {
   "bufferView": 8,
   "byteOffset": 0,
   "componentType": 5123,
   "count": 6,
   "type": "SCALAR",
   "min": [
    0
   ],
   "max": [
    3
   ]
  },
  {
   "bufferView": 9,
   "byteOffset": 0,
   "componentType": 5126,
   "count": 8,
   "type": "VEC3",
   "min": [
    0.0,
    0.0,
    0.0
   ],
   "max": [
    5.0,
    2.5,
    5.0
   ]
  },
  {
   "bufferView": 10,
   "byteOffset": 0,
   "componentType": 5123,
   "count": 5,
   "type": "SCALAR",
   "min": [
    0
   ],
   "max": [
    6
   ]
  },
  {
   "bufferView": 11,
   "byteOffset": 0,
   "componentType": 5123,
   "count": 5,
   "type": "SCALAR",
   "min": [
    1
   ],
   "max": [
    7
   ]
  },
  {
   "bufferView": 12,
   "byteOffset": 0,
   "componentType": 5123,
   "count": 20,
   "type": "SCALAR",
   "min": [
    0
   ],
   "max": [
    7
   ]
  },
  {
   "bufferView": 13,
   "byteOffset": 0,
   "componentType": 5126,
   "count": 48,
   "type": "VEC3",
   "min": [
    -0.3,
    0.0,
    -0.2
   ],
   "max": [
    1.8,
    1.6,
    0.2
   ]
  },
  {
   "bufferView": 14,
   "byteOffset": 0,
   "componentType": 5126,
   "count": 48,
   "type": "VEC2",
   "min": [
    -1.8,
    -1.8
   ],
   "max": [
    1.8,
    1.8
   ]
  },
  {
   "bufferView": 15,
   "byteOffset": 0,
   "componentType": 5123,
   "count": 72,
   "type": "SCALAR",
   "min": [
    0
   ],
   "max": [
    47
   ]
  },
  {
   "bufferView": 16,
   "byteOffset": 0,
   "componentType": 5126,
   "count": 20,
   "type": "VEC3",
   "min": [
    -0.3,
    0.0,
    -0.2
   ],
   "max": [
    1.8,
    1.6,
    0.2
   ]
  },
  {
   "bufferView": 17,
   "byteOffset": 0,
   "componentType": 5123,
   "count": 60,
   "type": "SCALAR",
   "min": [
    0
   ],
   "max": [
    15
   ]
  },
  {
   "bufferView": 18,
   "byteOffset": 0,
   "componentType": 5123,
   "count": 5,
   "type": "SCALAR",
   "min": [
    4
   ],
   "max": [
    19
   ]
  }
 ],
 "images": [
  {
   "uri": "/common/basic/ground.jpg"
  },
  {
   "uri": "/common/basic/wall.jpg"
  },
  {
   "uri": "/common/basic/ceiling.jpg"
  }
 ],
 "textures": [
  {
   "sampler": 0,
   "source": 0
  },
  {
   "sampler": 0,
   "source": 1
  },
  {
   "sampler": 0,
   "source": 2
  }
 ],
 "samplers": [
  {
   "magFilter": 9729,
   "minFilter": 9986,
   "wrapS": 10497,
   "wrapT": 10497
  }
 ]
}