{
 "asset": {
  "generator": "MILENDALL-1.0",
  "version": "2.0"
 },
 "extras": {},
 "scene": 0,
 "scenes": [
  {
   "nodes": [
    0
   ]
  }
 ],
 "nodes": [
  {
   "children": [
    1
   ]
  },
  {
   "name": "b0_parent",
   "children": [
    2
   ],
   "mesh": 0,
   "extras": {
    "phys_faces": [
     {
      "data": {
       "type": "hard"
      },
      "accessor": 10
     },
     {
      "data": {
       "type": "hard"
      },
      "accessor": 11
     },
     {
      "data": {
       "type": "hard"
      },
      "accessor": 12
     },
     {
      "data": {
       "type": "hard"
      },
      "accessor": 13
     },
     {
      "data": {
       "type": "hard"
      },
      "accessor": 14
     },
     {
      "data": {
       "type": "hard"
      },
      "accessor": 15
     }
    ],
    "points": 9
   }
  },
  {
   "name": "b0_root_door0",
   "children": [
    3
   ],
   "matrix": [
    1.0,
    0.0,
    0.0,
    0,
    0.0,
    1.0,
    0.0,
    0,
    0.0,
    0.0,
    1.0,
    0,
    4.0,
    0.0,
    0.0,
    1
   ]
  },
  {
   "name": "door0_door0",
   "mesh": 1,
   "extras": {
    "phys_faces": [
     {
      "data": {
       "type": "hard"
      },
      "accessor": 20
     },
     {
      "data": {
       "type": "portal",
       "connect": "A",
       "gate": "my_door"
      },
      "accessor": 21
     }
    ],
    "points": 19
   }
  }
 ],
 "meshes": [
  {
   "primitives": [
    {
     "attributes": {
      "POSITION": 0,
      "TEXCOORD_0": 1
     },
     "indices": 2,
     "mode": 4,
     "material": 0
    },
    {
     "attributes": {
      "POSITION": 3,
      "TEXCOORD_0": 4
     },
     "indices": 5,
     "mode": 4,
     "material": 1
    },
    {
     "attributes": {
      "POSITION": 6,
      "TEXCOORD_0": 7
     },
     "indices": 8,
     "mode": 4,
     "material": 2
    }
   ],
   "name": "Mesh_b0_parent"
  },
  {
   "primitives": [
    {
     "attributes": {
      "POSITION": 16,
      "TEXCOORD_0": 17
     },
     "indices": 18,
     "mode": 4,
     "material": 1
    }
   ],
   "name": "Mesh_door0_door0"
  }
 ],
 "buffers": [
  {
   "uri": "data.bin",
   "byteLength": 2698
  }
 ],
 "bufferViews": [
  {
   "buffer": 0,
   "byteOffset": 0,
   "byteLength": 48
  },
  {
   "buffer": 0,
   "byteOffset": 48,
   "byteLength": 32
  },
  {
   "buffer": 0,
   "byteOffset": 80,
   "byteLength": 12
  },
  {
   "buffer": 0,
   "byteOffset": 96,
   "byteLength": 288
  },
  {
   "buffer": 0,
   "byteOffset": 384,
   "byteLength": 192
  },
  {
   "buffer": 0,
   "byteOffset": 576,
   "byteLength": 72
  },
  {
   "buffer": 0,
   "byteOffset": 648,
   "byteLength": 48
  },
  {
   "buffer": 0,
   "byteOffset": 696,
   "byteLength": 32
  },
  {
   "buffer": 0,
   "byteOffset": 728,
   "byteLength": 12
  },
  {
   "buffer": 0,
   "byteOffset": 744,
   "byteLength": 384
  },
  {
   "buffer": 0,
   "byteOffset": 1128,
   "byteLength": 10
  },
  {
   "buffer": 0,
   "byteOffset": 1140,
   "byteLength": 10
  },
  {
   "buffer": 0,
   "byteOffset": 1152,
   "byteLength": 30
  },
  {
   "buffer": 0,
   "byteOffset": 1184,
   "byteLength": 10
  },
  {
   "buffer": 0,
   "byteOffset": 1196,
   "byteLength": 10
  },
  {
   "buffer": 0,
   "byteOffset": 1208,
   "byteLength": 10
  },
  {
   "buffer": 0,
   "byteOffset": 1220,
   "byteLength": 576
  },
  {
   "buffer": 0,
   "byteOffset": 1800,
   "byteLength": 384
  },
  {
   "buffer": 0,
   "byteOffset": 2184,
   "byteLength": 144
  },
  {
   "buffer": 0,
   "byteOffset": 2328,
   "byteLength": 240
  },
  {
   "buffer": 0,
   "byteOffset": 2568,
   "byteLength": 120
  },
  {
   "buffer": 0,
   "byteOffset": 2688,
   "byteLength": 10
  }
 ],
 "materials": [
  {
   "pbrMetallicRoughness": {
    "baseColorTexture": {
     "index": 0
    },
    "metallicFactor": 0.0
   }
  },
  {
   "pbrMetallicRoughness": {
    "baseColorTexture": {
     "index": 1
    },
    "metallicFactor": 0.0
   }
  },
  {
   "pbrMetallicRoughness": {
    "baseColorTexture": {
     "index": 2
    },
    "metallicFactor": 0.0
   }
  }
 ],
 "accessors": [
  {
   "bufferView": 0,
   "byteOffset": 0,
   "componentType": 5126,
   "count": 4,
   "type": "VEC3",
   "min": [
    0.0,
    0.0,
    0.0
   ],
   "max": [
    10.0,
    0.0,
    5.0
   ]
  },
  {
   "bufferView": 1,
   "byteOffset": 0,
   "componentType": 5126,
   "count": 4,
   "type": "VEC2",
   "min": [
    0.0,
    -5.0
   ],
   "max": [
    10.0,
    0.0
   ]
  },
  {
   "bufferView": 2,
   "byteOffset": 0,
   "componentType": 5123,
   "count": 6,
   "type": "SCALAR",
   "min": [
    0
   ],
   "max": [
    3
   ]
  },
  {
   "bufferView": 3,
   "byteOffset": 0,
   "componentType": 5126,
   "count": 24,
   "type": "VEC3",
   "min": [
    0.0,
    0.0,
    0.0
   ],
   "max": [
    10.0,
    2.0,
    5.0
   ]
  },
  {
   "bufferView": 4,
   "byteOffset": 0,
   "componentType": 5126,
   "count": 24,
   "type": "VEC2",
   "min": [
    -10.0,
    -10.0
   ],
   "max": [
    5.0,
    4.0
   ]
  },
  {
   "bufferView": 5,
   "byteOffset": 0,
   "componentType": 5123,
   "count": 36,
   "type": "SCALAR",
   "min": [
    0
   ],
   "max": [
    23
   ]
  },
  {
   "bufferView": 6,
   "byteOffset": 0,
   "componentType": 5126,
   "count": 4,
   "type": "VEC3",
   "min": [
    0.0,
    2.0,
    0.0
   ],
   "max": [
    10.0,
    2.0,
    5.0
   ]
  },
  {
   "bufferView": 7,
   "byteOffset": 0,
   "componentType": 5126,
   "count": 4,
   "type": "VEC2",
   "min": [
    0.0,
    0.0
   ],
   "max": [
    10.0,
    5.0
   ]
  },
  {
   "bufferView": 8,
   "byteOffset": 0,
   "componentType": 5123,
   "count": 6,
   "type": "SCALAR",
   "min": [
    0
   ],
   "max": [
    3
   ]
  },
  {
   "bufferView": 9,
   "byteOffset": 0,
   "componentType": 5126,
   "count": 32,
   "type": "VEC3",
   "min": [
    0.0,
    0.0,
    0.0
   ],
   "max": [
    10.0,
    2.0,
    5.0
   ]
  },
  {
   "bufferView": 10,
   "byteOffset": 0,
   "componentType": 5123,
   "count": 5,
   "type": "SCALAR",
   "min": [
    0
   ],
   "max": [
    6
   ]
  },
  {
   "bufferView": 11,
   "byteOffset": 0,
   "componentType": 5123,
   "count": 5,
   "type": "SCALAR",
   "min": [
    1
   ],
   "max": [
    7
   ]
  },
  {
   "bufferView": 12,
   "byteOffset": 0,
   "componentType": 5123,
   "count": 15,
   "type": "SCALAR",
   "min": [
    4
   ],
   "max": [
    19
   ]
  },
  {
   "bufferView": 13,
   "byteOffset": 0,
   "componentType": 5123,
   "count": 5,
   "type": "SCALAR",
   "min": [
    4
   ],
   "max": [
    23
   ]
  },
  {
   "bufferView": 14,
   "byteOffset": 0,
   "componentType": 5123,
   "count": 5,
   "type": "SCALAR",
   "min": [
    4
   ],
   "max": [
    27
   ]
  },
  {
   "bufferView": 15,
   "byteOffset": 0,
   "componentType": 5123,
   "count": 5,
   "type": "SCALAR",
   "min": [
    4
   ],
   "max": [
    31
   ]
  },
  {
   "bufferView": 16,
   "byteOffset": 0,
   "componentType": 5126,
   "count": 48,
   "type": "VEC3",
   "min": [
    -0.3,
    0.0,
    -0.2
   ],
   "max": [
    1.8,
    1.6,
    0.2
   ]
  },
  {
   "bufferView": 17,
   "byteOffset": 0,
   "componentType": 5126,
   "count": 48,
   "type": "VEC2",
   "min": [
    -1.8,
    -1.8
   ],
   "max": [
    1.8,
    1.8
   ]
  },
  {
   "bufferView": 18,
   "byteOffset": 0,
   "componentType": 5123,
   "count": 72,
   "type": "SCALAR",
   "min": [
    0
   ],
   "max": [
    47
   ]
  },
  {
   "bufferView": 19,
   "byteOffset": 0,
   "componentType": 5126,
   "count": 20,
   "type": "VEC3",
   "min": [
    -0.3,
    0.0,
    -0.2
   ],
   "max": [
    1.8,
    1.6,
    0.2
   ]
  },
  {
   "bufferView": 20,
   "byteOffset": 0,
   "componentType": 5123,
   "count": 60,
   "type": "SCALAR",
   "min": [
    0
   ],
   "max": [
    15
   ]
  },
  {
   "bufferView": 21,
   "byteOffset": 0,
   "componentType": 5123,
   "count": 5,
   "type": "SCALAR",
   "min": [
    4
   ],
   "max": [
    19
   ]
  }
 ],
 "images": [
  {
   "uri": "ground.jpg"
  },
  {
   "uri": "wall.jpg"
  },
  {
   "uri": "ceiling.jpg"
  }
 ],
 "textures": [
  {
   "sampler": 0,
   "source": 0
  },
  {
   "sampler": 0,
   "source": 1
  },
  {
   "sampler": 0,
   "source": 2
  }
 ],
 "samplers": [
  {
   "magFilter": 9729,
   "minFilter": 9986,
   "wrapS": 10497,
   "wrapT": 10497
  }
 ]
}