{
 "asset": {
  "generator": "MILENDALL-1.0",
  "version": "2.0"
 },
 "scene": 0,
 "scenes": [
  {
   "nodes": [
    0
   ]
  }
 ],
 "nodes": [
  {
   "children": [
    1
   ]
  },
  {
   "name": "parent",
   "children": [
    2,
    3,
    4
   ],
   "mesh": 0,
   "extras": {
    "phys_faces": [
     {
      "data": {
       "type": "hard"
      },
      "accessor": 10
     },
     {
      "data": {
       "type": "hard"
      },
      "accessor": 11
     },
     {
      "data": {
       "type": "hard"
      },
      "accessor": 12
     },
     {
      "data": {
       "type": "hard"
      },
      "accessor": 13
     },
     {
      "data": {
       "type": "hard"
      },
      "accessor": 14
     },
     {
      "data": {
       "type": "hard"
      },
      "accessor": 15
     },
     {
      "data": {
       "type": "hard"
      },
      "accessor": 16
     },
     {
      "data": {
       "type": "hard"
      },
      "accessor": 17
     },
     {
      "data": {
       "type": "hard"
      },
      "accessor": 18
     },
     {
      "data": {
       "type": "hard"
      },
      "accessor": 19
     },
     {
      "data": {
       "type": "hard"
      },
      "accessor": 20
     },
     {
      "data": {
       "type": "hard"
      },
      "accessor": 21
     }
    ],
    "points": 9
   }
  },
  {
   "name": "r1r2",
   "children": [
    5
   ],
   "matrix": [
    -1.0,
    0.0,
    0.0,
    0,
    0.0,
    1.0,
    0.0,
    0,
    0.0,
    0.0,
    -1.0,
    0,
    6.5,
    0.0,
    0.0,
    1
   ]
  },
  {
   "name": "r2r1",
   "children": [
    6
   ],
   "matrix": [
    1.0,
    0.0,
    0.0,
    0,
    0.0,
    1.0,
    0.0,
    0,
    0.0,
    0.0,
    1.0,
    0,
    13.5,
    0.0,
    0.0,
    1
   ]
  },
  {
   "name": "r3r1",
   "children": [
    7
   ],
   "matrix": [
    -1.0,
    0.0,
    0.0,
    0,
    0.0,
    1.0,
    0.0,
    0,
    0.0,
    0.0,
    -1.0,
    0,
    19.0,
    0.0,
    4.0,
    1
   ]
  },
  {
   "name": "r1r2_impl",
   "mesh": 1,
   "extras": {
    "phys_faces": [
     {
      "data": {
       "type": "hard"
      },
      "accessor": 26
     },
     {
      "data": {
       "type": "portal",
       "connect": [
        "room1",
        "room2"
       ],
       "gate": "r1r2"
      },
      "accessor": 27
     }
    ],
    "points": 25
   }
  },
  {
   "name": "r2r1_impl",
   "mesh": 2,
   "extras": {
    "phys_faces": [
     {
      "data": {
       "type": "hard"
      },
      "accessor": 32
     },
     {
      "data": {
       "type": "portal",
       "connect": [
        "room2",
        "room1"
       ],
       "gate": "r2r1"
      },
      "accessor": 33
     }
    ],
    "points": 31
   }
  },
  {
   "name": "r3r1_impl",
   "mesh": 3,
   "extras": {
    "phys_faces": [
     {
      "data": {
       "type": "hard"
      },
      "accessor": 38
     },
     {
      "data": {
       "type": "portal",
       "connect": [
        "room3",
        "room1"
       ],
       "gate": "r3r1"
      },
      "accessor": 39
     }
    ],
    "points": 37
   }
  }
 ],
 "meshes": [
  {
   "primitives": [
    {
     "attributes": {
      "POSITION": 0,
      "TEXCOORD_0": 1
     },
     "indices": 2,
     "mode": 4,
     "material": 0
    },
    {
     "attributes": {
      "POSITION": 3,
      "TEXCOORD_0": 4
     },
     "indices": 5,
     "mode": 4,
     "material": 1
    },
    {
     "attributes": {
      "POSITION": 6,
      "TEXCOORD_0": 7
     },
     "indices": 8,
     "mode": 4,
     "material": 2
    }
   ],
   "name": "Mesh_parent"
  },
  {
   "primitives": [
    {
     "attributes": {
      "POSITION": 22,
      "TEXCOORD_0": 23
     },
     "indices": 24,
     "mode": 4,
     "material": 0
    }
   ],
   "name": "Mesh_r1r2_impl"
  },
  {
   "primitives": [
    {
     "attributes": {
      "POSITION": 28,
      "TEXCOORD_0": 29
     },
     "indices": 30,
     "mode": 4,
     "material": 0
    }
   ],
   "name": "Mesh_r2r1_impl"
  },
  {
   "primitives": [
    {
     "attributes": {
      "POSITION": 34,
      "TEXCOORD_0": 35
     },
     "indices": 36,
     "mode": 4,
     "material": 0
    }
   ],
   "name": "Mesh_r3r1_impl"
  }
 ],
 "buffers": [
  {
   "uri": "data.bin",
   "byteLength": 4234
  }
 ],
 "bufferViews": [
  {
   "buffer": 0,
   "byteOffset": 0,
   "byteLength": 48,
   "target": 34962
  },
  {
   "buffer": 0,
   "byteOffset": 48,
   "byteLength": 32,
   "target": 34962
  },
  {
   "buffer": 0,
   "byteOffset": 80,
   "byteLength": 12,
   "target": 34963
  },
  {
   "buffer": 0,
   "byteOffset": 96,
   "byteLength": 408,
   "target": 34962
  },
  {
   "buffer": 0,
   "byteOffset": 504,
   "byteLength": 272,
   "target": 34962
  },
  {
   "buffer": 0,
   "byteOffset": 776,
   "byteLength": 120,
   "target": 34963
  },
  {
   "buffer": 0,
   "byteOffset": 896,
   "byteLength": 48,
   "target": 34962
  },
  {
   "buffer": 0,
   "byteOffset": 944,
   "byteLength": 32,
   "target": 34962
  },
  {
   "buffer": 0,
   "byteOffset": 976,
   "byteLength": 12,
   "target": 34963
  },
  {
   "buffer": 0,
   "byteOffset": 992,
   "byteLength": 576,
   "target": 34962
  },
  {
   "buffer": 0,
   "byteOffset": 1568,
   "byteLength": 10,
   "target": 34963
  },
  {
   "buffer": 0,
   "byteOffset": 1580,
   "byteLength": 10,
   "target": 34963
  },
  {
   "buffer": 0,
   "byteOffset": 1592,
   "byteLength": 10,
   "target": 34963
  },
  {
   "buffer": 0,
   "byteOffset": 1604,
   "byteLength": 10,
   "target": 34963
  },
  {
   "buffer": 0,
   "byteOffset": 1616,
   "byteLength": 10,
   "target": 34963
  },
  {
   "buffer": 0,
   "byteOffset": 1628,
   "byteLength": 10,
   "target": 34963
  },
  {
   "buffer": 0,
   "byteOffset": 1640,
   "byteLength": 10,
   "target": 34963
  },
  {
   "buffer": 0,
   "byteOffset": 1652,
   "byteLength": 10,
   "target": 34963
  },
  {
   "buffer": 0,
   "byteOffset": 1664,
   "byteLength": 10,
   "target": 34963
  },
  {
   "buffer": 0,
   "byteOffset": 1676,
   "byteLength": 10,
   "target": 34963
  },
  {
   "buffer": 0,
   "byteOffset": 1688,
   "byteLength": 10,
   "target": 34963
  },
  {
   "buffer": 0,
   "byteOffset": 1700,
   "byteLength": 10,
   "target": 34963
  },
  {
   "buffer": 0,
   "byteOffset": 1716,
   "byteLength": 192,
   "target": 34962
  },
  {
   "buffer": 0,
   "byteOffset": 1912,
   "byteLength": 128,
   "target": 34962
  },
  {
   "buffer": 0,
   "byteOffset": 2040,
   "byteLength": 144,
   "target": 34963
  },
  {
   "buffer": 0,
   "byteOffset": 2184,
   "byteLength": 240,
   "target": 34962
  },
  {
   "buffer": 0,
   "byteOffset": 2424,
   "byteLength": 120,
   "target": 34963
  },
  {
   "buffer": 0,
   "byteOffset": 2544,
   "byteLength": 10,
   "target": 34963
  },
  {
   "buffer": 0,
   "byteOffset": 2556,
   "byteLength": 192,
   "target": 34962
  },
  {
   "buffer": 0,
   "byteOffset": 2752,
   "byteLength": 128,
   "target": 34962
  },
  {
   "buffer": 0,
   "byteOffset": 2880,
   "byteLength": 144,
   "target": 34963
  },
  {
   "buffer": 0,
   "byteOffset": 3024,
   "byteLength": 240,
   "target": 34962
  },
  {
   "buffer": 0,
   "byteOffset": 3264,
   "byteLength": 120,
   "target": 34963
  },
  {
   "buffer": 0,
   "byteOffset": 3384,
   "byteLength": 10,
   "target": 34963
  },
  {
   "buffer": 0,
   "byteOffset": 3396,
   "byteLength": 192,
   "target": 34962
  },
  {
   "buffer": 0,
   "byteOffset": 3592,
   "byteLength": 128,
   "target": 34962
  },
  {
   "buffer": 0,
   "byteOffset": 3720,
   "byteLength": 144,
   "target": 34963
  },
  {
   "buffer": 0,
   "byteOffset": 3864,
   "byteLength": 240,
   "target": 34962
  },
  {
   "buffer": 0,
   "byteOffset": 4104,
   "byteLength": 120,
   "target": 34963
  },
  {
   "buffer": 0,
   "byteOffset": 4224,
   "byteLength": 10,
   "target": 34963
  }
 ],
 "materials": [
  {
   "pbrMetallicRoughness": {
    "baseColorTexture": {
     "index": 0
    },
    "metallicFactor": 0.0
   }
  },
  {
   "pbrMetallicRoughness": {
    "baseColorTexture": {
     "index": 1
    },
    "metallicFactor": 0.0
   }
  },
  {
   "pbrMetallicRoughness": {
    "baseColorTexture": {
     "index": 2
    },
    "metallicFactor": 0.0
   }
  }
 ],
 "accessors": [
  {
   "bufferView": 0,
   "byteOffset": 0,
   "componentType": 5126,
   "count": 4,
   "type": "VEC3",
   "min": [
    0.0,
    0.0,
    0.0
   ],
   "max": [
    23.0,
    0.0,
    4.0
   ]
  },
  {
   "bufferView": 1,
   "byteOffset": 0,
   "componentType": 5126,
   "count": 4,
   "type": "VEC2",
   "min": [
    0.0,
    0.0
   ],
   "max": [
    23.0,
    4.0
   ]
  },
  {
   "bufferView": 2,
   "byteOffset": 0,
   "componentType": 5123,
   "count": 6,
   "type": "SCALAR",
   "min": [
    0
   ],
   "max": [
    3
   ]
  },
  {
   "bufferView": 3,
   "byteOffset": 0,
   "componentType": 5126,
   "count": 34,
   "type": "VEC3",
   "min": [
    0.0,
    0.0,
    0.0
   ],
   "max": [
    23.0,
    4.5,
    4.0
   ]
  },
  {
   "bufferView": 4,
   "byteOffset": 0,
   "componentType": 5126,
   "count": 34,
   "type": "VEC2",
   "min": [
    0.0,
    0.0
   ],
   "max": [
    27.0,
    4.5
   ]
  },
  {
   "bufferView": 5,
   "byteOffset": 0,
   "componentType": 5123,
   "count": 60,
   "type": "SCALAR",
   "min": [
    0
   ],
   "max": [
    33
   ]
  },
  {
   "bufferView": 6,
   "byteOffset": 0,
   "componentType": 5126,
   "count": 4,
   "type": "VEC3",
   "min": [
    0.0,
    4.5,
    0.0
   ],
   "max": [
    23.0,
    4.5,
    4.0
   ]
  },
  {
   "bufferView": 7,
   "byteOffset": 0,
   "componentType": 5126,
   "count": 4,
   "type": "VEC2",
   "min": [
    0.0,
    0.0
   ],
   "max": [
    23.0,
    4.0
   ]
  },
  {
   "bufferView": 8,
   "byteOffset": 0,
   "componentType": 5123,
   "count": 6,
   "type": "SCALAR",
   "min": [
    0
   ],
   "max": [
    3
   ]
  },
  {
   "bufferView": 9,
   "byteOffset": 0,
   "componentType": 5126,
   "count": 48,
   "type": "VEC3",
   "min": [
    0.0,
    0.0,
    0.0
   ],
   "max": [
    23.0,
    4.5,
    4.0
   ]
  },
  {
   "bufferView": 10,
   "byteOffset": 0,
   "componentType": 5123,
   "count": 5,
   "type": "SCALAR",
   "min": [
    0
   ],
   "max": [
    6
   ]
  },
  {
   "bufferView": 11,
   "byteOffset": 0,
   "componentType": 5123,
   "count": 5,
   "type": "SCALAR",
   "min": [
    1
   ],
   "max": [
    7
   ]
  },
  {
   "bufferView": 12,
   "byteOffset": 0,
   "componentType": 5123,
   "count": 5,
   "type": "SCALAR",
   "min": [
    4
   ],
   "max": [
    11
   ]
  },
  {
   "bufferView": 13,
   "byteOffset": 0,
   "componentType": 5123,
   "count": 5,
   "type": "SCALAR",
   "min": [
    4
   ],
   "max": [
    15
   ]
  },
  {
   "bufferView": 14,
   "byteOffset": 0,
   "componentType": 5123,
   "count": 5,
   "type": "SCALAR",
   "min": [
    4
   ],
   "max": [
    19
   ]
  },
  {
   "bufferView": 15,
   "byteOffset": 0,
   "componentType": 5123,
   "count": 5,
   "type": "SCALAR",
   "min": [
    4
   ],
   "max": [
    23
   ]
  },
  {
   "bufferView": 16,
   "byteOffset": 0,
   "componentType": 5123,
   "count": 5,
   "type": "SCALAR",
   "min": [
    4
   ],
   "max": [
    27
   ]
  },
  {
   "bufferView": 17,
   "byteOffset": 0,
   "componentType": 5123,
   "count": 5,
   "type": "SCALAR",
   "min": [
    4
   ],
   "max": [
    31
   ]
  },
  {
   "bufferView": 18,
   "byteOffset": 0,
   "componentType": 5123,
   "count": 5,
   "type": "SCALAR",
   "min": [
    4
   ],
   "max": [
    35
   ]
  },
  {
   "bufferView": 19,
   "byteOffset": 0,
   "componentType": 5123,
   "count": 5,
   "type": "SCALAR",
   "min": [
    4
   ],
   "max": [
    39
   ]
  },
  {
   "bufferView": 20,
   "byteOffset": 0,
   "componentType": 5123,
   "count": 5,
   "type": "SCALAR",
   "min": [
    4
   ],
   "max": [
    43
   ]
  },
  {
   "bufferView": 21,
   "byteOffset": 0,
   "componentType": 5123,
   "count": 5,
   "type": "SCALAR",
   "min": [
    4
   ],
   "max": [
    47
   ]
  },
  {
   "bufferView": 22,
   "byteOffset": 0,
   "componentType": 5126,
   "count": 16,
   "type": "VEC3",
   "min": [
    -0.5,
    0.0,
    -0.2
   ],
   "max": [
    3.0,
    2.7,
    1.2
   ]
  },
  {
   "bufferView": 23,
   "byteOffset": 0,
   "componentType": 5126,
   "count": 16,
   "type": "VEC2",
   "min": [
    -0.5,
    -0.2
   ],
   "max": [
    3.0,
    1.2
   ]
  },
  {
   "bufferView": 24,
   "byteOffset": 0,
   "componentType": 5123,
   "count": 72,
   "type": "SCALAR",
   "min": [
    0
   ],
   "max": [
    15
   ]
  },
  {
   "bufferView": 25,
   "byteOffset": 0,
   "componentType": 5126,
   "count": 20,
   "type": "VEC3",
   "min": [
    -0.5,
    0.0,
    -0.2
   ],
   "max": [
    3.0,
    2.7,
    1.2
   ]
  },
  {
   "bufferView": 26,
   "byteOffset": 0,
   "componentType": 5123,
   "count": 60,
   "type": "SCALAR",
   "min": [
    0
   ],
   "max": [
    15
   ]
  },
  {
   "bufferView": 27,
   "byteOffset": 0,
   "componentType": 5123,
   "count": 5,
   "type": "SCALAR",
   "min": [
    4
   ],
   "max": [
    19
   ]
  },
  {
   "bufferView": 28,
   "byteOffset": 0,
   "componentType": 5126,
   "count": 16,
   "type": "VEC3",
   "min": [
    -0.5,
    0.0,
    -0.2
   ],
   "max": [
    3.0,
    2.7,
    1.2
   ]
  },
  {
   "bufferView": 29,
   "byteOffset": 0,
   "componentType": 5126,
   "count": 16,
   "type": "VEC2",
   "min": [
    -0.5,
    -0.2
   ],
   "max": [
    3.0,
    1.2
   ]
  },
  {
   "bufferView": 30,
   "byteOffset": 0,
   "componentType": 5123,
   "count": 72,
   "type": "SCALAR",
   "min": [
    0
   ],
   "max": [
    15
   ]
  },
  {
   "bufferView": 31,
   "byteOffset": 0,
   "componentType": 5126,
   "count": 20,
   "type": "VEC3",
   "min": [
    -0.5,
    0.0,
    -0.2
   ],
   "max": [
    3.0,
    2.7,
    1.2
   ]
  },
  {
   "bufferView": 32,
   "byteOffset": 0,
   "componentType": 5123,
   "count": 60,
   "type": "SCALAR",
   "min": [
    0
   ],
   "max": [
    15
   ]
  },
  {
   "bufferView": 33,
   "byteOffset": 0,
   "componentType": 5123,
   "count": 5,
   "type": "SCALAR",
   "min": [
    4
   ],
   "max": [
    19
   ]
  },
  {
   "bufferView": 34,
   "byteOffset": 0,
   "componentType": 5126,
   "count": 16,
   "type": "VEC3",
   "min": [
    -0.5,
    0.0,
    -0.2
   ],
   "max": [
    3.0,
    2.7,
    1.2
   ]
  },
  {
   "bufferView": 35,
   "byteOffset": 0,
   "componentType": 5126,
   "count": 16,
   "type": "VEC2",
   "min": [
    -0.5,
    -0.2
   ],
   "max": [
    3.0,
    1.2
   ]
  },
  {
   "bufferView": 36,
   "byteOffset": 0,
   "componentType": 5123,
   "count": 72,
   "type": "SCALAR",
   "min": [
    0
   ],
   "max": [
    15
   ]
  },
  {
   "bufferView": 37,
   "byteOffset": 0,
   "componentType": 5126,
   "count": 20,
   "type": "VEC3",
   "min": [
    -0.5,
    0.0,
    -0.2
   ],
   "max": [
    3.0,
    2.7,
    1.2
   ]
  },
  {
   "bufferView": 38,
   "byteOffset": 0,
   "componentType": 5123,
   "count": 60,
   "type": "SCALAR",
   "min": [
    0
   ],
   "max": [
    15
   ]
  },
  {
   "bufferView": 39,
   "byteOffset": 0,
   "componentType": 5123,
   "count": 5,
   "type": "SCALAR",
   "min": [
    4
   ],
   "max": [
    19
   ]
  }
 ],
 "images": [
  {
   "uri": "/common/basic/ground.jpg"
  },
  {
   "uri": "/common/basic/wall.jpg"
  },
  {
   "uri": "/common/basic/ceiling.jpg"
  }
 ],
 "textures": [
  {
   "sampler": 0,
   "source": 0
  },
  {
   "sampler": 0,
   "source": 1
  },
  {
   "sampler": 0,
   "source": 2
  }
 ],
 "samplers": [
  {
   "magFilter": 9729,
   "minFilter": 9986,
   "wrapS": 10497,
   "wrapT": 10497
  }
 ]
}