{
 "asset": {
  "generator": "MILENDALL-1.0",
  "version": "2.0"
 },
 "extras": {
  "animations": [
   {
    "name": "open_door1",
    "false": 0.0,
    "true": 0.5,
    "event": "my_door_event_1"
   },
   {
    "name": "open_door2",
    "false": 0.0,
    "true": 1.0,
    "event": "my_door_event_2"
   }
  ]
 },
 "scene": 0,
 "scenes": [
  {
   "nodes": [
    0
   ]
  }
 ],
 "nodes": [
  {
   "children": [
    1
   ]
  },
  {
   "name": "parent",
   "children": [
    2,
    3
   ],
   "mesh": 0,
   "extras": {
    "phys_faces": [
     {
      "data": {
       "type": "hard"
      },
      "accessor": 10
     },
     {
      "data": {
       "type": "hard"
      },
      "accessor": 11
     },
     {
      "data": {
       "type": "hard"
      },
      "accessor": 12
     },
     {
      "data": {
       "type": "hard"
      },
      "accessor": 13
     },
     {
      "data": {
       "type": "hard"
      },
      "accessor": 14
     },
     {
      "data": {
       "type": "hard"
      },
      "accessor": 15
     },
     {
      "data": {
       "type": "hard"
      },
      "accessor": 16
     },
     {
      "data": {
       "type": "hard"
      },
      "accessor": 17
     },
     {
      "data": {
       "type": "hard"
      },
      "accessor": 18
     },
     {
      "data": {
       "type": "hard"
      },
      "accessor": 19
     }
    ],
    "points": 9
   }
  },
  {
   "name": "door2",
   "children": [
    6
   ],
   "matrix": [
    -1.0,
    0.0,
    0.0,
    0,
    0.0,
    1.0,
    0.0,
    0,
    0.0,
    0.0,
    -1.0,
    0,
    5.5,
    0.0,
    0.0,
    1
   ]
  },
  {
   "name": "door1",
   "children": [
    4
   ],
   "matrix": [
    0.0,
    0.0,
    -1.0,
    0,
    0.0,
    1.0,
    0.0,
    0,
    1.0,
    0.0,
    0.0,
    0,
    12.5,
    0.0,
    5.5,
    1
   ]
  },
  {
   "name": "door1_impl",
   "children": [
    5
   ],
   "mesh": 1,
   "extras": {
    "phys_faces": [
     {
      "data": {
       "type": "hard"
      },
      "accessor": 24
     },
     {
      "data": {
       "type": "portal",
       "connect": "A",
       "gate": "door1"
      },
      "accessor": 25
     }
    ],
    "points": 23
   }
  },
  {
   "name": "door1_door",
   "mesh": 2,
   "extras": {
    "phys_faces": [
     {
      "data": {
       "type": "hard"
      },
      "accessor": 30
     }
    ],
    "points": 29
   }
  },
  {
   "name": "door2_impl",
   "children": [
    7
   ],
   "mesh": 3,
   "extras": {
    "phys_faces": [
     {
      "data": {
       "type": "hard"
      },
      "accessor": 35
     },
     {
      "data": {
       "type": "portal",
       "connect": "A",
       "gate": "door2"
      },
      "accessor": 36
     }
    ],
    "points": 34
   }
  },
  {
   "name": "door2_door",
   "mesh": 4,
   "extras": {
    "phys_faces": [
     {
      "data": {
       "type": "hard"
      },
      "accessor": 41
     }
    ],
    "points": 40
   }
  }
 ],
 "meshes": [
  {
   "primitives": [
    {
     "attributes": {
      "POSITION": 0,
      "TEXCOORD_0": 1
     },
     "indices": 2,
     "mode": 4,
     "material": 0
    },
    {
     "attributes": {
      "POSITION": 3,
      "TEXCOORD_0": 4
     },
     "indices": 5,
     "mode": 4,
     "material": 1
    },
    {
     "attributes": {
      "POSITION": 6,
      "TEXCOORD_0": 7
     },
     "indices": 8,
     "mode": 4,
     "material": 2
    }
   ],
   "name": "Mesh_parent"
  },
  {
   "primitives": [
    {
     "attributes": {
      "POSITION": 20,
      "TEXCOORD_0": 21
     },
     "indices": 22,
     "mode": 4,
     "material": 0
    }
   ],
   "name": "Mesh_door1_impl"
  },
  {
   "primitives": [
    {
     "attributes": {
      "POSITION": 26,
      "TEXCOORD_0": 27
     },
     "indices": 28,
     "mode": 4,
     "material": 1
    }
   ],
   "name": "Mesh_door1_door"
  },
  {
   "primitives": [
    {
     "attributes": {
      "POSITION": 31,
      "TEXCOORD_0": 32
     },
     "indices": 33,
     "mode": 4,
     "material": 0
    }
   ],
   "name": "Mesh_door2_impl"
  },
  {
   "primitives": [
    {
     "attributes": {
      "POSITION": 37,
      "TEXCOORD_0": 38
     },
     "indices": 39,
     "mode": 4,
     "material": 1
    }
   ],
   "name": "Mesh_door2_door"
  }
 ],
 "buffers": [
  {
   "uri": "data.bin",
   "byteLength": 3936
  }
 ],
 "bufferViews": [
  {
   "buffer": 0,
   "byteOffset": 0,
   "byteLength": 48
  },
  {
   "buffer": 0,
   "byteOffset": 48,
   "byteLength": 32
  },
  {
   "buffer": 0,
   "byteOffset": 80,
   "byteLength": 12
  },
  {
   "buffer": 0,
   "byteOffset": 96,
   "byteLength": 336
  },
  {
   "buffer": 0,
   "byteOffset": 432,
   "byteLength": 224
  },
  {
   "buffer": 0,
   "byteOffset": 656,
   "byteLength": 96
  },
  {
   "buffer": 0,
   "byteOffset": 752,
   "byteLength": 48
  },
  {
   "buffer": 0,
   "byteOffset": 800,
   "byteLength": 32
  },
  {
   "buffer": 0,
   "byteOffset": 832,
   "byteLength": 12
  },
  {
   "buffer": 0,
   "byteOffset": 848,
   "byteLength": 480
  },
  {
   "buffer": 0,
   "byteOffset": 1328,
   "byteLength": 10
  },
  {
   "buffer": 0,
   "byteOffset": 1340,
   "byteLength": 10
  },
  {
   "buffer": 0,
   "byteOffset": 1352,
   "byteLength": 10
  },
  {
   "buffer": 0,
   "byteOffset": 1364,
   "byteLength": 10
  },
  {
   "buffer": 0,
   "byteOffset": 1376,
   "byteLength": 10
  },
  {
   "buffer": 0,
   "byteOffset": 1388,
   "byteLength": 10
  },
  {
   "buffer": 0,
   "byteOffset": 1400,
   "byteLength": 10
  },
  {
   "buffer": 0,
   "byteOffset": 1412,
   "byteLength": 10
  },
  {
   "buffer": 0,
   "byteOffset": 1424,
   "byteLength": 10
  },
  {
   "buffer": 0,
   "byteOffset": 1436,
   "byteLength": 10
  },
  {
   "buffer": 0,
   "byteOffset": 1452,
   "byteLength": 192
  },
  {
   "buffer": 0,
   "byteOffset": 1648,
   "byteLength": 128
  },
  {
   "buffer": 0,
   "byteOffset": 1776,
   "byteLength": 144
  },
  {
   "buffer": 0,
   "byteOffset": 1920,
   "byteLength": 240
  },
  {
   "buffer": 0,
   "byteOffset": 2160,
   "byteLength": 120
  },
  {
   "buffer": 0,
   "byteOffset": 2280,
   "byteLength": 10
  },
  {
   "buffer": 0,
   "byteOffset": 2292,
   "byteLength": 96
  },
  {
   "buffer": 0,
   "byteOffset": 2392,
   "byteLength": 64
  },
  {
   "buffer": 0,
   "byteOffset": 2456,
   "byteLength": 36
  },
  {
   "buffer": 0,
   "byteOffset": 2496,
   "byteLength": 132
  },
  {
   "buffer": 0,
   "byteOffset": 2628,
   "byteLength": 30
  },
  {
   "buffer": 0,
   "byteOffset": 2660,
   "byteLength": 192
  },
  {
   "buffer": 0,
   "byteOffset": 2856,
   "byteLength": 128
  },
  {
   "buffer": 0,
   "byteOffset": 2984,
   "byteLength": 144
  },
  {
   "buffer": 0,
   "byteOffset": 3128,
   "byteLength": 240
  },
  {
   "buffer": 0,
   "byteOffset": 3368,
   "byteLength": 120
  },
  {
   "buffer": 0,
   "byteOffset": 3488,
   "byteLength": 10
  },
  {
   "buffer": 0,
   "byteOffset": 3500,
   "byteLength": 96
  },
  {
   "buffer": 0,
   "byteOffset": 3600,
   "byteLength": 64
  },
  {
   "buffer": 0,
   "byteOffset": 3664,
   "byteLength": 36
  },
  {
   "buffer": 0,
   "byteOffset": 3704,
   "byteLength": 132
  },
  {
   "buffer": 0,
   "byteOffset": 3836,
   "byteLength": 30
  },
  {
   "buffer": 0,
   "byteOffset": 3868,
   "byteLength": 24
  },
  {
   "buffer": 0,
   "byteOffset": 3896,
   "byteLength": 8
  },
  {
   "buffer": 0,
   "byteOffset": 3904,
   "byteLength": 24
  },
  {
   "buffer": 0,
   "byteOffset": 3928,
   "byteLength": 8
  }
 ],
 "materials": [
  {
   "pbrMetallicRoughness": {
    "baseColorTexture": {
     "index": 0
    },
    "metallicFactor": 0.0
   }
  },
  {
   "pbrMetallicRoughness": {
    "baseColorTexture": {
     "index": 1
    },
    "metallicFactor": 0.0
   }
  },
  {
   "pbrMetallicRoughness": {
    "baseColorTexture": {
     "index": 2
    },
    "metallicFactor": 0.0
   }
  }
 ],
 "accessors": [
  {
   "bufferView": 0,
   "byteOffset": 0,
   "componentType": 5126,
   "count": 4,
   "type": "VEC3",
   "min": [
    0.0,
    0.0,
    0.0
   ],
   "max": [
    12.5,
    0.0,
    12.5
   ]
  },
  {
   "bufferView": 1,
   "byteOffset": 0,
   "componentType": 5126,
   "count": 4,
   "type": "VEC2",
   "min": [
    0.0,
    0.0
   ],
   "max": [
    12.5,
    12.5
   ]
  },
  {
   "bufferView": 2,
   "byteOffset": 0,
   "componentType": 5123,
   "count": 6,
   "type": "SCALAR",
   "min": [
    0
   ],
   "max": [
    3
   ]
  },
  {
   "bufferView": 3,
   "byteOffset": 0,
   "componentType": 5126,
   "count": 28,
   "type": "VEC3",
   "min": [
    0.0,
    0.0,
    0.0
   ],
   "max": [
    12.5,
    4.0,
    12.5
   ]
  },
  {
   "bufferView": 4,
   "byteOffset": 0,
   "componentType": 5126,
   "count": 28,
   "type": "VEC2",
   "min": [
    0.0,
    0.0
   ],
   "max": [
    25.0,
    4.0
   ]
  },
  {
   "bufferView": 5,
   "byteOffset": 0,
   "componentType": 5123,
   "count": 48,
   "type": "SCALAR",
   "min": [
    0
   ],
   "max": [
    27
   ]
  },
  {
   "bufferView": 6,
   "byteOffset": 0,
   "componentType": 5126,
   "count": 4,
   "type": "VEC3",
   "min": [
    0.0,
    4.0,
    0.0
   ],
   "max": [
    12.5,
    4.0,
    12.5
   ]
  },
  {
   "bufferView": 7,
   "byteOffset": 0,
   "componentType": 5126,
   "count": 4,
   "type": "VEC2",
   "min": [
    0.0,
    0.0
   ],
   "max": [
    12.5,
    12.5
   ]
  },
  {
   "bufferView": 8,
   "byteOffset": 0,
   "componentType": 5123,
   "count": 6,
   "type": "SCALAR",
   "min": [
    0
   ],
   "max": [
    3
   ]
  },
  {
   "bufferView": 9,
   "byteOffset": 0,
   "componentType": 5126,
   "count": 40,
   "type": "VEC3",
   "min": [
    0.0,
    0.0,
    0.0
   ],
   "max": [
    12.5,
    4.0,
    12.5
   ]
  },
  {
   "bufferView": 10,
   "byteOffset": 0,
   "componentType": 5123,
   "count": 5,
   "type": "SCALAR",
   "min": [
    0
   ],
   "max": [
    6
   ]
  },
  {
   "bufferView": 11,
   "byteOffset": 0,
   "componentType": 5123,
   "count": 5,
   "type": "SCALAR",
   "min": [
    1
   ],
   "max": [
    7
   ]
  },
  {
   "bufferView": 12,
   "byteOffset": 0,
   "componentType": 5123,
   "count": 5,
   "type": "SCALAR",
   "min": [
    4
   ],
   "max": [
    11
   ]
  },
  {
   "bufferView": 13,
   "byteOffset": 0,
   "componentType": 5123,
   "count": 5,
   "type": "SCALAR",
   "min": [
    4
   ],
   "max": [
    15
   ]
  },
  {
   "bufferView": 14,
   "byteOffset": 0,
   "componentType": 5123,
   "count": 5,
   "type": "SCALAR",
   "min": [
    4
   ],
   "max": [
    19
   ]
  },
  {
   "bufferView": 15,
   "byteOffset": 0,
   "componentType": 5123,
   "count": 5,
   "type": "SCALAR",
   "min": [
    4
   ],
   "max": [
    23
   ]
  },
  {
   "bufferView": 16,
   "byteOffset": 0,
   "componentType": 5123,
   "count": 5,
   "type": "SCALAR",
   "min": [
    4
   ],
   "max": [
    27
   ]
  },
  {
   "bufferView": 17,
   "byteOffset": 0,
   "componentType": 5123,
   "count": 5,
   "type": "SCALAR",
   "min": [
    4
   ],
   "max": [
    31
   ]
  },
  {
   "bufferView": 18,
   "byteOffset": 0,
   "componentType": 5123,
   "count": 5,
   "type": "SCALAR",
   "min": [
    4
   ],
   "max": [
    35
   ]
  },
  {
   "bufferView": 19,
   "byteOffset": 0,
   "componentType": 5123,
   "count": 5,
   "type": "SCALAR",
   "min": [
    4
   ],
   "max": [
    39
   ]
  },
  {
   "bufferView": 20,
   "byteOffset": 0,
   "componentType": 5126,
   "count": 16,
   "type": "VEC3",
   "min": [
    -0.3,
    0.0,
    -0.2
   ],
   "max": [
    1.8,
    1.6,
    0.2
   ]
  },
  {
   "bufferView": 21,
   "byteOffset": 0,
   "componentType": 5126,
   "count": 16,
   "type": "VEC2",
   "min": [
    -0.3,
    -0.2
   ],
   "max": [
    1.8,
    0.2
   ]
  },
  {
   "bufferView": 22,
   "byteOffset": 0,
   "componentType": 5123,
   "count": 72,
   "type": "SCALAR",
   "min": [
    0
   ],
   "max": [
    15
   ]
  },
  {
   "bufferView": 23,
   "byteOffset": 0,
   "componentType": 5126,
   "count": 20,
   "type": "VEC3",
   "min": [
    -0.3,
    0.0,
    -0.2
   ],
   "max": [
    1.8,
    1.6,
    0.2
   ]
  },
  {
   "bufferView": 24,
   "byteOffset": 0,
   "componentType": 5123,
   "count": 60,
   "type": "SCALAR",
   "min": [
    0
   ],
   "max": [
    15
   ]
  },
  {
   "bufferView": 25,
   "byteOffset": 0,
   "componentType": 5123,
   "count": 5,
   "type": "SCALAR",
   "min": [
    4
   ],
   "max": [
    19
   ]
  },
  {
   "bufferView": 26,
   "byteOffset": 0,
   "componentType": 5126,
   "count": 8,
   "type": "VEC3",
   "min": [
    0.0,
    0.0,
    -0.1
   ],
   "max": [
    1.5,
    1.5,
    0.1
   ]
  },
  {
   "bufferView": 27,
   "byteOffset": 0,
   "componentType": 5126,
   "count": 8,
   "type": "VEC2",
   "min": [
    -0.1,
    0.0
   ],
   "max": [
    1.6,
    1.5
   ]
  },
  {
   "bufferView": 28,
   "byteOffset": 0,
   "componentType": 5123,
   "count": 18,
   "type": "SCALAR",
   "min": [
    0
   ],
   "max": [
    7
   ]
  },
  {
   "bufferView": 29,
   "byteOffset": 0,
   "componentType": 5126,
   "count": 11,
   "type": "VEC3",
   "min": [
    0.0,
    0.0,
    -0.1
   ],
   "max": [
    1.5,
    1.5,
    0.1
   ]
  },
  {
   "bufferView": 30,
   "byteOffset": 0,
   "componentType": 5123,
   "count": 15,
   "type": "SCALAR",
   "min": [
    0
   ],
   "max": [
    7
   ]
  },
  {
   "bufferView": 31,
   "byteOffset": 0,
   "componentType": 5126,
   "count": 16,
   "type": "VEC3",
   "min": [
    -0.3,
    0.0,
    -0.2
   ],
   "max": [
    1.8,
    1.6,
    0.2
   ]
  },
  {
   "bufferView": 32,
   "byteOffset": 0,
   "componentType": 5126,
   "count": 16,
   "type": "VEC2",
   "min": [
    -0.3,
    -0.2
   ],
   "max": [
    1.8,
    0.2
   ]
  },
  {
   "bufferView": 33,
   "byteOffset": 0,
   "componentType": 5123,
   "count": 72,
   "type": "SCALAR",
   "min": [
    0
   ],
   "max": [
    15
   ]
  },
  {
   "bufferView": 34,
   "byteOffset": 0,
   "componentType": 5126,
   "count": 20,
   "type": "VEC3",
   "min": [
    -0.3,
    0.0,
    -0.2
   ],
   "max": [
    1.8,
    1.6,
    0.2
   ]
  },
  {
   "bufferView": 35,
   "byteOffset": 0,
   "componentType": 5123,
   "count": 60,
   "type": "SCALAR",
   "min": [
    0
   ],
   "max": [
    15
   ]
  },
  {
   "bufferView": 36,
   "byteOffset": 0,
   "componentType": 5123,
   "count": 5,
   "type": "SCALAR",
   "min": [
    4
   ],
   "max": [
    19
   ]
  },
  {
   "bufferView": 37,
   "byteOffset": 0,
   "componentType": 5126,
   "count": 8,
   "type": "VEC3",
   "min": [
    0.0,
    0.0,
    -0.1
   ],
   "max": [
    1.5,
    1.5,
    0.1
   ]
  },
  {
   "bufferView": 38,
   "byteOffset": 0,
   "componentType": 5126,
   "count": 8,
   "type": "VEC2",
   "min": [
    -0.1,
    0.0
   ],
   "max": [
    1.6,
    1.5
   ]
  },
  {
   "bufferView": 39,
   "byteOffset": 0,
   "componentType": 5123,
   "count": 18,
   "type": "SCALAR",
   "min": [
    0
   ],
   "max": [
    7
   ]
  },
  {
   "bufferView": 40,
   "byteOffset": 0,
   "componentType": 5126,
   "count": 11,
   "type": "VEC3",
   "min": [
    0.0,
    0.0,
    -0.1
   ],
   "max": [
    1.5,
    1.5,
    0.1
   ]
  },
  {
   "bufferView": 41,
   "byteOffset": 0,
   "componentType": 5123,
   "count": 15,
   "type": "SCALAR",
   "min": [
    0
   ],
   "max": [
    7
   ]
  },
  {
   "bufferView": 42,
   "byteOffset": 0,
   "componentType": 5126,
   "count": 2,
   "type": "VEC3",
   "min": [
    0.0,
    -1.5,
    0.0
   ],
   "max": [
    0.0,
    0.0,
    0.0
   ]
  },
  {
   "bufferView": 43,
   "byteOffset": 0,
   "componentType": 5126,
   "count": 2,
   "type": "SCALAR",
   "min": [
    0.0
   ],
   "max": [
    0.5
   ]
  },
  {
   "bufferView": 44,
   "byteOffset": 0,
   "componentType": 5126,
   "count": 2,
   "type": "VEC3",
   "min": [
    0.0,
    -1.5,
    0.0
   ],
   "max": [
    0.0,
    0.0,
    0.0
   ]
  },
  {
   "bufferView": 45,
   "byteOffset": 0,
   "componentType": 5126,
   "count": 2,
   "type": "SCALAR",
   "min": [
    0.0
   ],
   "max": [
    1.0
   ]
  }
 ],
 "images": [
  {
   "uri": "/common/basic/ground.jpg"
  },
  {
   "uri": "/common/basic/wall.jpg"
  },
  {
   "uri": "/common/basic/ceiling.jpg"
  }
 ],
 "textures": [
  {
   "sampler": 0,
   "source": 0
  },
  {
   "sampler": 0,
   "source": 1
  },
  {
   "sampler": 0,
   "source": 2
  }
 ],
 "samplers": [
  {
   "magFilter": 9729,
   "minFilter": 9986,
   "wrapS": 10497,
   "wrapT": 10497
  }
 ],
 "animations": [
  {
   "name": "open_door1",
   "channels": [
    {
     "sampler": 0,
     "target": {
      "node": 5,
      "path": "translation"
     }
    }
   ],
   "samplers": [
    {
     "input": 43,
     "output": 42,
     "interpolation": "LINEAR"
    }
   ]
  },
  {
   "name": "open_door2",
   "channels": [
    {
     "sampler": 0,
     "target": {
      "node": 7,
      "path": "translation"
     }
    }
   ],
   "samplers": [
    {
     "input": 45,
     "output": 44,
     "interpolation": "LINEAR"
    }
   ]
  }
 ]
}