{
 "asset": {
  "generator": "MILENDALL-1.0",
  "version": "2.0"
 },
 "scene": 0,
 "scenes": [
  {
   "nodes": [
    0
   ]
  }
 ],
 "nodes": [
  {
   "children": [
    1
   ]
  },
  {
   "name": "parent",
   "mesh": 0
  }
 ],
 "meshes": [
  {
   "primitives": [
    {
     "attributes": {
      "POSITION": 0,
      "TEXCOORD_0": 2
     },
     "indices": 1,
     "mode": 4,
     "material": 0
    },
    {
     "attributes": {
      "POSITION": 3,
      "TEXCOORD_0": 5
     },
     "indices": 4,
     "mode": 4,
     "material": 1
    }
   ],
   "name": "Mesh_parent"
  }
 ],
 "buffers": [
  {
   "uri": "data.bin",
   "byteLength": 392
  }
 ],
 "bufferViews": [
  {
   "buffer": 0,
   "byteOffset": 0,
   "byteLength": 96,
   "target": 34962
  },
  {
   "buffer": 0,
   "byteOffset": 96,
   "byteLength": 24,
   "target": 34963
  },
  {
   "buffer": 0,
   "byteOffset": 120,
   "byteLength": 64,
   "target": 34962
  },
  {
   "buffer": 0,
   "byteOffset": 184,
   "byteLength": 96,
   "target": 34962
  },
  {
   "buffer": 0,
   "byteOffset": 280,
   "byteLength": 48,
   "target": 34963
  },
  {
   "buffer": 0,
   "byteOffset": 328,
   "byteLength": 64,
   "target": 34962
  }
 ],
 "materials": [
  {
   "pbrMetallicRoughness": {
    "baseColorTexture": {
     "index": 0
    },
    "metallicFactor": 0.0
   }
  },
  {
   "pbrMetallicRoughness": {
    "baseColorTexture": {
     "index": 1
    },
    "metallicFactor": 0.0
   }
  }
 ],
 "accessors": [
  {
   "bufferView": 0,
   "byteOffset": 0,
   "componentType": 5126,
   "count": 8,
   "type": "VEC3",
   "min": [
    0.0,
    0.0,
    0.0
   ],
   "max": [
    1.0,
    1.0,
    1.0
   ]
  },
  {
   "bufferView": 1,
   "byteOffset": 0,
   "componentType": 5123,
   "count": 12,
   "type": "SCALAR",
   "min": [
    0
   ],
   "max": [
    7
   ]
  },
  {
   "bufferView": 2,
   "byteOffset": 0,
   "componentType": 5126,
   "count": 8,
   "type": "VEC2",
   "min": [
    0.0,
    0.0
   ],
   "max": [
    1.0,
    1.0
   ]
  },
  {
   "bufferView": 3,
   "byteOffset": 0,
   "componentType": 5126,
   "count": 8,
   "type": "VEC3",
   "min": [
    0.0,
    0.0,
    0.0
   ],
   "max": [
    1.0,
    1.0,
    1.0
   ]
  },
  {
   "bufferView": 4,
   "byteOffset": 0,
   "componentType": 5123,
   "count": 24,
   "type": "SCALAR",
   "min": [
    0
   ],
   "max": [
    7
   ]
  },
  {
   "bufferView": 5,
   "byteOffset": 0,
   "componentType": 5126,
   "count": 8,
   "type": "VEC2",
   "min": [
    0.0,
    0.0
   ],
   "max": [
    2.0,
    1.0
   ]
  }
 ],
 "images": [
  {
   "uri": "/fake_texture/white.jpg"
  },
  {
   "uri": "/fake_texture/black.jpg"
  }
 ],
 "textures": [
  {
   "sampler": 0,
   "source": 0
  },
  {
   "sampler": 0,
   "source": 1
  }
 ],
 "samplers": [
  {
   "magFilter": 9729,
   "minFilter": 9986,
   "wrapS": 10497,
   "wrapT": 10497
  }
 ]
}